<svg width="64" height="64" viewBox="0 0 64 64" fill="none" xmlns="http://www.w3.org/2000/svg">
    <rect width="64" height="64" rx="32" fill="#FCFCFC"/>
    <g clip-path="url(#clip0_1820_375)">
        <path fill-rule="evenodd" clip-rule="evenodd" d="M15.943 36.2728V51.1868C15.9412 51.3676 15.8714 51.5403 15.7488 51.6678C15.6262 51.7952 15.4606 51.8672 15.2878 51.8682H9.65527C9.4821 51.8682 9.31597 51.7965 9.19319 51.6688C9.0704 51.5412 9.00095 51.3679 9 51.1868V36.2728H15.943ZM9 31.4025L23.8923 17.7799C27.1901 21.1491 30.3877 25.2407 33.6497 28.6099L45.5485 16.1178L41.7171 12.1048L53 12V23.8968L49.3226 20.0522C46.6836 22.8486 40.4424 29.0067 37.8034 31.7694C34.4626 35.2583 32.8691 35.3219 29.5319 31.833L23.8923 25.2744L17.2822 31.4025H9ZM49.9528 26.4836V51.1906C49.9509 51.3707 49.8817 51.5428 49.7599 51.6702C49.6381 51.7976 49.4734 51.87 49.3011 51.8719H43.665C43.4928 51.869 43.3285 51.7956 43.2073 51.6676C43.0862 51.5395 43.0178 51.367 43.0169 51.1868V33.4465C44.0911 32.3571 45.3444 31.0918 46.6227 29.804L49.2904 27.12C49.5028 26.8958 49.7263 26.6833 49.96 26.4836H49.9528ZM38.6162 37.583V51.1868C38.6143 51.3676 38.5446 51.5403 38.422 51.6678C38.2994 51.7952 38.1338 51.8672 37.9609 51.8682H32.3285C32.1556 51.8672 31.99 51.7952 31.8674 51.6678C31.7448 51.5403 31.6751 51.3676 31.6732 51.1868V39.0355C32.3446 39.2058 33.0342 39.2851 33.7249 39.2713C35.4821 39.2446 37.1893 38.6554 38.6162 37.583ZM27.2796 36.46V51.1681C27.2777 51.3489 27.208 51.5216 27.0854 51.649C26.9628 51.7765 26.7972 51.8485 26.6243 51.8494H20.9883C20.8157 51.8485 20.6505 51.7764 20.5285 51.6488C20.4065 51.5212 20.3375 51.3485 20.3366 51.1681V35.2096C20.4512 35.1198 20.5622 35.0262 20.6696 34.9289L23.4841 32.3084L25.7542 34.9289L25.9297 35.1198C26.388 35.6015 26.838 36.0407 27.2796 36.4375V36.46Z" fill="#13243E"/>
    </g>
    <defs>
        <clipPath id="clip0_1820_375">
            <rect width="46" height="39.8682" fill="white" transform="translate(9 12)"/>
        </clipPath>
    </defs>
</svg>