<svg width="142" height="33" viewBox="0 0 142 33" fill="none" xmlns="http://www.w3.org/2000/svg">
<g clip-path="url(#clip0_442_33350)">
<path d="M69.3844 8.84774C66.5196 8.84774 63.6866 10.0767 61.532 12.5026V0.564453H57.2627V20.6662C57.2627 27.1939 62.5535 32.4846 69.0812 32.4846C75.6088 32.4846 80.8996 27.1939 80.8996 20.6662C80.8996 14.1385 75.9121 8.84774 69.3844 8.84774ZM69.0732 27.928C65.0592 27.928 61.8113 24.6722 61.8113 20.6662C61.8113 16.6602 65.0672 13.4043 69.0732 13.4043C73.0871 13.4043 76.335 16.6602 76.335 20.6662C76.335 24.6722 73.0871 27.928 69.0732 27.928Z" fill="black"/>
<path d="M95.8541 8.84774C92.9893 8.84774 90.1564 10.0767 88.0017 12.5026V0.564453H83.7324V20.6662C83.7324 27.1939 89.0232 32.4846 95.5509 32.4846C102.079 32.4846 107.369 27.1939 107.369 20.6662C107.369 14.1385 102.374 8.84774 95.8541 8.84774ZM95.5429 27.928C91.5289 27.928 88.2811 24.6722 88.2811 20.6662C88.2811 16.6602 91.5369 13.4043 95.5429 13.4043C99.5569 13.4043 102.805 16.6602 102.805 20.6662C102.805 24.6722 99.5569 27.928 95.5429 27.928Z" fill="black"/>
<path d="M33.2266 22.7332V9.48633H37.8071V22.6933C37.8071 26.0689 39.7622 28.2315 43.058 28.2315C46.3936 28.2315 48.3089 26.1487 48.3089 22.6933V9.48633H52.9293V22.7332C52.9293 28.8539 49.2186 32.4769 43.058 32.4769C37.057 32.4848 33.2266 28.7342 33.2266 22.7332Z" fill="black"/>
<path d="M115.628 31.942H111.048V0.564453H115.628V31.942Z" fill="black"/>
<path d="M141.564 22.4855H124.031C124.702 25.9808 127.152 28.3588 131.485 28.3588C134.022 28.3588 137.111 27.4012 139.106 25.9409L141.021 29.3164C138.731 31.0242 135.108 32.4366 131.317 32.4366C122.906 32.4366 119.283 26.5633 119.283 20.6501C119.283 17.2745 120.321 14.4895 122.451 12.279C124.574 10.0685 127.367 8.94336 130.743 8.94336C133.951 8.94336 136.616 9.94086 138.659 11.9838C140.702 14.0266 141.739 16.7718 141.739 20.275C141.723 20.9055 141.683 21.6556 141.564 22.4855ZM124.023 18.7349H137.103C136.728 15.1917 134.102 12.9015 130.727 12.9015C127.271 12.9015 124.694 15.2396 124.023 18.7349Z" fill="black"/>
<path d="M18.6795 8.84774C15.8146 8.84774 12.9817 10.0767 10.8271 12.5026V0.564453H6.5498V20.6662C6.5498 27.1939 11.8406 32.4846 18.3683 32.4846C24.8959 32.4846 30.1867 27.1939 30.1867 20.6662C30.1867 14.1385 25.1992 8.84774 18.6795 8.84774ZM18.3683 27.928C14.3543 27.928 11.1064 24.6722 11.1064 20.6662C11.1064 16.6602 14.3623 13.4043 18.3683 13.4043C22.3822 13.4043 25.6301 16.6602 25.6301 20.6662C25.6301 24.6722 22.3822 27.928 18.3683 27.928Z" fill="black"/>
<path d="M3.44511 32.476C5.05817 32.476 6.36581 31.1684 6.36581 29.5553C6.36581 27.9423 5.05817 26.6346 3.44511 26.6346C1.83206 26.6346 0.524414 27.9423 0.524414 29.5553C0.524414 31.1684 1.83206 32.476 3.44511 32.476Z" fill="#0000FF"/>
</g>
<defs>
<clipPath id="clip0_442_33350">
<rect width="141.327" height="32" fill="white" transform="translate(0.476562 0.5)"/>
</clipPath>
</defs>
</svg>
