<svg width="33" height="32" viewBox="0 0 33 32" fill="none" xmlns="http://www.w3.org/2000/svg">
<rect x="0.5" width="32" height="32" rx="16" fill="#408558" fill-opacity="0.12"/>
<path d="M23.8092 9.00112C19.0048 11.9463 15.5418 15.666 14.1358 17.319L10.5257 14.4909C10.4301 14.4222 8.4484 16.1815 8.50103 16.2363L15.0757 22.9205C15.124 22.9753 15.1906 23 15.2626 23C15.2754 23 15.2959 23 15.313 22.9957C15.399 22.9764 15.472 22.9184 15.5042 22.8324C16.5633 20.1246 20.0606 14.4555 24.5268 10.3438C24.6062 10.2686 24.6342 10.1504 24.5901 10.0484C24.5901 10.0484 23.8758 8.96031 23.8092 9.00112Z" fill="#408558"/>
</svg>
