<svg width="132" height="33" viewBox="0 0 132 33" fill="none" xmlns="http://www.w3.org/2000/svg">
<path fill-rule="evenodd" clip-rule="evenodd" d="M130.289 22.6598C129.883 22.3659 129.561 22.3239 129.295 22.8837C124.732 32.7512 117.048 27.8245 117.818 28.2584C119.525 27.4746 124.004 23.8915 123.332 18.9228C122.927 15.8855 120.323 14.5419 117.552 15.0317C112.723 15.8715 110.96 21.0782 111.855 25.683C112.009 26.4809 112.289 27.1247 112.583 27.7685C107.139 32.2054 104.969 23.8075 104.717 22.7998C104.703 22.7438 108.93 19.2307 110.106 10.8468C111.338 2.07098 108.538 0.461383 105.669 0.517369C100.364 0.615344 98.9366 11.6866 100.854 20.9102C100.7 20.9522 99.9443 21.3721 98.7408 21.4141C97.8729 18.6848 94.1638 16.2914 93.198 17.2152C90.7766 19.5246 93.7859 24.0315 95.9136 24.3814C94.6396 32.2334 86.6617 30.2879 88.1452 20.4484C90.7347 15.6336 92.7222 8.45338 92.3583 4.12845C92.2323 2.60284 91.0985 0.545362 88.5372 0.643337C83.6105 0.83929 83.0787 11.9105 83.6524 19.7765C83.6246 19.5806 83.3446 20.7283 81.3289 21.3021C80.8531 18.6568 76.5843 15.9835 75.5766 17.2712C73.7011 19.6646 76.9622 23.9335 78.5017 24.2274C77.2281 32.0795 69.2502 30.1339 70.7337 20.2944C73.3372 15.4796 75.3107 8.31341 74.9606 3.98851C74.8348 2.46288 73.7011 0.405397 71.1395 0.503372C66.2128 0.699323 65.6809 11.7705 66.255 19.6366C66.2268 19.4406 65.9468 20.6303 63.8473 21.1902C63.7776 17.747 59.4947 16.1794 58.4588 17.2712C56.6252 19.2307 58.8787 23.2476 60.9641 24.2274C59.6905 32.0795 51.7126 30.1339 53.1961 20.2944C55.7856 15.4796 57.7731 8.29942 57.4092 3.9745C57.2972 2.46288 56.1635 0.405397 53.6019 0.503372C48.6751 0.699323 48.2835 12.3304 48.8572 20.1964C47.2336 27.1527 41.7891 35.8306 42.5027 18.4329C42.5728 17.2152 42.6428 16.7533 42.0409 16.2914C41.5792 15.9415 40.5433 16.1094 39.9833 16.1235C39.2976 16.1515 39.1158 16.5573 38.9756 17.1592C38.6259 18.7268 38.5558 20.2524 38.4998 22.3379C38.472 23.3176 38.3878 23.7655 38.0099 25.0952C37.632 26.4249 35.5046 28.8463 34.3289 28.4404C32.7052 27.8805 33.2371 23.3036 33.5449 20.1544C33.7971 17.6631 32.9852 16.5573 30.9137 16.1515C29.696 15.8995 28.9542 15.9415 27.6945 15.5356C26.4908 15.1577 26.2249 12.8903 23.6776 13.6461C22.2779 14.066 23.1737 17.0192 22.8377 19.2167C21.1862 30.008 17.757 30.3019 16.1614 25.0672C23.3276 7.48762 18.2189 0.559358 15.2376 0.559358C12.1304 0.559358 8.57534 2.70082 10.0729 16.4174C9.34514 16.2074 9.1212 16.0955 8.30939 16.0955C3.78854 16.0815 0.695312 19.7485 0.695312 24.2694C0.695312 28.7903 3.78853 32.4573 8.32341 32.4573C10.9967 32.4573 12.8722 31.2396 14.2999 29.3641C15.2237 30.6938 16.3574 32.4853 18.4288 32.4014C24.5873 32.1634 26.3789 19.5246 26.5888 18.8108C27.2466 18.9088 27.8765 19.1047 28.4784 19.2027C29.4861 19.3566 29.5701 19.7625 29.5421 20.7703C29.2761 29.3641 30.8577 32.3734 34.455 32.3734C36.4563 32.3734 38.248 30.3999 39.4796 29.0002C40.4035 30.9037 41.8588 32.3174 43.8326 32.3734C48.5913 32.4853 50.4249 24.8992 50.2569 25.893C50.1308 26.6768 51.7964 32.3174 56.7094 32.3454C62.7836 32.3734 63.9174 25.6971 64.0435 24.5773C64.0575 24.3534 64.0713 24.3814 64.0435 24.5773C64.0435 24.5913 64.0435 24.6193 64.0435 24.6473C65.975 24.2834 66.9686 23.2617 66.9686 23.2617C66.9686 23.2617 68.5222 32.4573 74.247 32.3594C80.1955 32.2474 81.3289 26.2149 81.4691 25.0392C81.4831 24.7593 81.4969 24.7873 81.4691 25.0392C81.4691 25.0532 81.4691 25.0672 81.4691 25.0672C83.7644 24.2274 84.3663 23.4016 84.3663 23.4016C84.3663 23.4016 85.598 32.4154 91.6444 32.4993C97.0332 32.5694 99.0345 27.0407 99.0486 24.7313C99.9584 24.7453 101.638 24.1854 101.596 24.1574C101.596 24.1574 103.57 32.0375 109.084 32.4434C111.674 32.6392 113.619 30.9877 114.725 30.2319C117.328 32.3454 125.992 35.0328 131.465 25.753C132.248 24.4374 130.583 22.8558 130.289 22.6598ZM8.09944 29.3921C5.45413 29.3921 3.76054 26.9428 3.76054 24.3114C3.76054 21.6801 5.31416 19.2307 7.9595 19.2307C9.1492 19.2307 9.80702 19.3566 10.7448 20.1684C10.9128 20.8263 11.3886 22.3519 11.6266 23.0517C11.9345 23.9755 12.3124 24.7733 12.6763 25.6271C12.1304 27.8385 10.3949 29.3921 8.09944 29.3921ZM14.5378 20.2384C14.4259 20.0565 14.4539 20.1684 14.3279 20.0005C13.852 18.6848 12.9143 15.7455 12.8023 12.4004C12.6763 8.62134 13.3062 4.18445 15.1677 4.18445C16.4274 4.18445 17.771 13.1702 14.5378 20.2384ZM51.7824 16.3054C51.4886 14.066 51.4745 4.0585 53.8681 4.3384C55.1977 4.87027 53.0281 14.3039 51.7824 16.3054ZM69.3199 16.3054C69.0262 14.066 69.0121 4.0585 71.4057 4.3384C72.7353 4.87027 70.5657 14.3039 69.3199 16.3054ZM86.7177 16.4454C86.4236 14.2059 86.4099 4.19843 88.8032 4.47837C90.1328 4.99626 87.9635 14.4439 86.7177 16.4454ZM105.921 3.73658C108.118 3.51262 108.02 13.1002 103.626 19.1467C103.051 16.9632 102.184 4.49238 105.921 3.73658ZM115.159 24.3814C114.459 20.8123 116.278 18.4748 118.154 18.2229C118.812 18.125 119.763 18.5448 119.945 19.3427C120.253 20.8403 119.903 23.0657 115.691 25.879C115.705 25.893 115.313 25.1652 115.159 24.3814ZM40.7113 13.3801C42.2089 13.3801 43.4265 12.1624 43.4265 10.6648C43.4265 9.1672 42.2089 7.9495 40.7113 7.9495C39.2137 7.9495 37.9958 9.1672 37.9958 10.6648C37.9958 12.1624 39.2137 13.3801 40.7113 13.3801Z" fill="#444444"/>
</svg>
