<svg width="48" height="48" viewBox="0 0 48 48" fill="none" xmlns="http://www.w3.org/2000/svg">
<rect width="48" height="48" rx="24" fill="white"/>
<path fill-rule="evenodd" clip-rule="evenodd" d="M24 44C35.0457 44 44 35.0457 44 24C44 12.9543 35.0457 4 24 4C12.9543 4 4 12.9543 4 24C4 35.0457 12.9543 44 24 44ZM18.9891 33.1277C18.3698 33.671 17.4271 33.6132 16.8789 32.9965C16.3285 32.3774 16.3843 31.4292 17.0035 30.8789L17.5536 30.4561C17.8782 30.2303 18.3441 29.9389 18.9394 29.6503C20.13 29.073 21.8535 28.5 24 28.5C26.1465 28.5 27.87 29.073 29.0607 29.6503C29.656 29.9389 30.1218 30.2303 30.4465 30.4561C30.609 30.5692 30.737 30.6665 30.829 30.7395L30.9966 30.8789C31.6157 31.4292 31.6715 32.3774 31.1211 32.9965C30.573 33.6132 29.6302 33.671 29.0109 33.1277L28.7333 32.9188C28.5189 32.7697 28.1878 32.5611 27.7519 32.3497C26.88 31.927 25.6035 31.5 24 31.5C22.3965 31.5 21.12 31.927 20.2482 32.3497C19.8122 32.5611 19.4812 32.7697 19.2668 32.9188L18.9891 33.1277ZM34 20C34 21.1046 33.1046 22 32 22C30.8954 22 30 21.1046 30 20C30 18.8954 30.8954 18 32 18C33.1046 18 34 18.8954 34 20ZM16 22C17.1046 22 18 21.1046 18 20C18 18.8954 17.1046 18 16 18C14.8954 18 14 18.8954 14 20C14 21.1046 14.8954 22 16 22Z" fill="#13243E" fill-opacity="0.6"/>
</svg>
