<svg width="48" height="48" viewBox="0 0 48 48" fill="none" xmlns="http://www.w3.org/2000/svg">
<rect width="48" height="48" rx="24" fill="white"/>
<path fill-rule="evenodd" clip-rule="evenodd" d="M24 44C35.0457 44 44 35.0457 44 24C44 12.9543 35.0457 4 24 4C12.9543 4 4 12.9543 4 24C4 35.0457 12.9543 44 24 44ZM18.9891 28.8723C18.3698 28.329 17.4271 28.3868 16.8789 29.0035C16.3285 29.6226 16.3843 30.5708 17.0035 31.1211L17.5536 31.5439C17.8782 31.7697 18.3441 32.0611 18.9394 32.3497C20.13 32.927 21.8535 33.5 24 33.5C26.1465 33.5 27.87 32.927 29.0607 32.3497C29.656 32.0611 30.1218 31.7697 30.4465 31.5439C30.609 31.4308 30.737 31.3335 30.829 31.2605L30.9966 31.1211C31.6157 30.5708 31.6715 29.6226 31.1211 29.0035C30.573 28.3868 29.6302 28.329 29.0109 28.8723L28.7333 29.0812C28.5189 29.2303 28.1878 29.4389 27.7519 29.6503C26.88 30.073 25.6035 30.5 24 30.5C22.3965 30.5 21.12 30.073 20.2482 29.6503C19.8122 29.4389 19.4812 29.2303 19.2668 29.0812L18.9891 28.8723ZM34 20C34 21.1046 33.1046 22 32 22C30.8954 22 30 21.1046 30 20C30 18.8954 30.8954 18 32 18C33.1046 18 34 18.8954 34 20ZM16 22C17.1046 22 18 21.1046 18 20C18 18.8954 17.1046 18 16 18C14.8954 18 14 18.8954 14 20C14 21.1046 14.8954 22 16 22Z" fill="#408558"/>
</svg>
