<svg width="130" height="33" viewBox="0 0 130 33" fill="none" xmlns="http://www.w3.org/2000/svg">
<g clip-path="url(#clip0_442_33330)">
<path d="M7.86095 10.9955V9.74518C7.86095 9.411 7.72819 9.0905 7.49189 8.8542C7.25559 8.6179 6.9351 8.48515 6.60091 8.48515H4.18935V7.32651C4.18548 5.97025 4.49161 5.16166 4.76673 4.86651L4.77965 4.85037C4.96738 4.66539 5.20321 4.53674 5.46036 4.47901C6.35041 4.33579 7.25073 4.26602 8.15222 4.2704H8.61528C8.78081 4.27049 8.94473 4.23796 9.09768 4.17468C9.25062 4.11139 9.3896 4.01859 9.50668 3.90158C9.62375 3.78457 9.71662 3.64563 9.77998 3.49272C9.84335 3.3398 9.87596 3.1759 9.87596 3.01037V1.88145C9.8766 1.58883 9.77518 1.30515 9.58915 1.07928C9.40312 0.853403 9.14414 0.699479 8.85683 0.644022C8.70441 0.614313 8.53391 0.584605 8.34468 0.555542C8.10701 0.518729 6.8586 0.5 6.61319 0.5H6.59575C4.56717 0.5 2.83891 0.974045 1.68156 2.21535C0.548764 3.46311 0.142531 5.22431 0.136719 7.36526V30.9571C0.136719 31.2913 0.269471 31.6118 0.505773 31.8481C0.742075 32.0844 1.06257 32.2171 1.39675 32.2171H2.92932C3.09484 32.2173 3.25877 32.1848 3.41172 32.1216C3.56467 32.0583 3.70364 31.9655 3.82068 31.8484C3.93772 31.7314 4.03052 31.5924 4.09379 31.4395C4.15705 31.2865 4.18952 31.1226 4.18935 30.9571V12.2543H6.59962C6.76514 12.2546 6.9291 12.2223 7.08211 12.1592C7.23513 12.0961 7.3742 12.0034 7.49136 11.8865C7.60851 11.7696 7.70146 11.6307 7.76488 11.4778C7.8283 11.3249 7.86095 11.161 7.86095 10.9955Z" fill="#272827"/>
<path d="M116.048 31.7456C116.16 31.8676 116.296 31.9652 116.448 32.0325C116.599 32.0998 116.763 32.1354 116.929 32.137H118.487C118.748 32.1371 119.003 32.0558 119.216 31.9044C119.429 31.753 119.59 31.5391 119.676 31.2923L129.234 3.86931C129.301 3.67941 129.321 3.47637 129.293 3.27716C129.264 3.07796 129.189 2.88839 129.073 2.72431C128.956 2.56023 128.802 2.42641 128.623 2.33404C128.445 2.24166 128.246 2.19343 128.045 2.19336H126.513C126.252 2.19299 125.996 2.27422 125.783 2.42575C125.57 2.57728 125.409 2.79156 125.323 3.03876L115.765 30.4617C115.716 30.5918 115.691 30.7296 115.69 30.8686C115.694 31.1955 115.821 31.5089 116.047 31.7456" fill="#7476EB"/>
<path d="M85.4593 32.1364H86.9511C87.1167 32.1365 87.2806 32.1041 87.4335 32.0408C87.5865 31.9775 87.7254 31.8847 87.8425 31.7677C87.9595 31.6506 88.0523 31.5117 88.1156 31.3587C88.1789 31.2058 88.2113 31.0418 88.2112 30.8763V18.0119C88.2175 17.2727 88.34 16.5391 88.5741 15.838C88.8122 15.0998 89.1707 14.406 89.6352 13.7849C90.0633 13.2013 90.607 12.7121 91.2324 12.3479C91.8457 12.0046 92.5403 11.8333 93.2429 11.8519C94.0097 11.8034 94.7715 12.0061 95.4129 12.4292C95.9812 12.8667 96.4081 13.462 96.64 14.1407C96.9652 15.0597 97.1225 16.0297 97.1044 17.0044V30.8763C97.1044 31.2105 97.2371 31.531 97.4734 31.7673C97.7097 32.0036 98.0302 32.1364 98.3644 32.1364H99.8563C100.022 32.1364 100.186 32.1039 100.338 32.0406C100.491 31.9773 100.63 31.8845 100.747 31.7675C100.864 31.6504 100.957 31.5115 101.02 31.3586C101.083 31.2057 101.116 31.0418 101.116 30.8763V18.0119C101.122 17.2728 101.244 16.5392 101.478 15.838C101.715 15.0995 102.074 14.4055 102.538 13.7842C102.967 13.2007 103.511 12.7116 104.136 12.3472C104.75 12.0041 105.444 11.8328 106.147 11.8512C106.913 11.8027 107.675 12.0054 108.316 12.4286C108.885 12.8655 109.312 13.4607 109.543 14.1394C109.868 15.0587 110.026 16.0288 110.008 17.0037V30.8763C110.008 31.2105 110.14 31.531 110.377 31.7673C110.613 32.0036 110.933 32.1364 111.268 32.1364H112.759C112.925 32.1365 113.089 32.1041 113.242 32.0408C113.395 31.9775 113.534 31.8847 113.651 31.7677C113.768 31.6506 113.861 31.5117 113.924 31.3587C113.987 31.2058 114.02 31.0418 114.02 30.8763V16.6401C114.057 15.1102 113.782 13.5888 113.211 12.169C112.681 10.8968 111.772 9.81854 110.608 9.08057C109.362 8.33682 107.931 7.96232 106.481 8.00073H106.456C104.91 7.98724 103.393 8.41906 102.086 9.24462C101.225 9.799 100.474 10.5078 99.8705 11.3352C99.3469 10.4255 98.6136 9.65401 97.7315 9.08509C96.5061 8.33979 95.0919 7.96332 93.6582 8.00073H93.6291C92.0972 7.99192 90.5951 8.42394 89.302 9.24526C88.914 9.49723 88.5494 9.7834 88.2125 10.1004V9.64826C88.2083 9.31969 88.0763 9.00567 87.8444 8.77283C87.6125 8.53999 87.2991 8.40667 86.9705 8.40115H85.4593C85.1251 8.40115 84.8046 8.5339 84.5683 8.7702C84.332 9.00651 84.1992 9.327 84.1992 9.66118V30.8763C84.1992 31.2105 84.332 31.531 84.5683 31.7673C84.8046 32.0036 85.1251 32.1364 85.4593 32.1364Z" fill="#272827"/>
<path d="M65.5738 31.0173C67.2673 32.037 69.2165 32.5523 71.1926 32.5027H71.2165C73.1548 32.5455 75.067 32.0491 76.7397 31.0689C78.3681 30.0558 79.6454 28.5663 80.3984 26.8025C81.2529 24.7456 81.6707 22.5336 81.6255 20.3067C81.6689 18.0989 81.2608 15.9056 80.4262 13.8612C79.6874 12.0878 78.4351 10.5759 76.8302 9.51989C75.1463 8.48293 73.1973 7.95808 71.2204 8.00928H71.1946C69.2467 7.96825 67.3262 8.47222 65.6494 9.46435C64.0193 10.4777 62.7416 11.9695 61.9907 13.7359C61.1359 15.8199 60.7267 18.0596 60.7895 20.3112C60.742 22.4909 61.1407 24.6573 61.961 26.6772C62.6885 28.4621 63.9505 29.9782 65.5738 31.0173ZM66.5426 13.8754C67.0503 13.2231 67.7103 12.7053 68.4646 12.3674C69.3313 12.0089 70.2626 11.833 71.2004 11.8507C72.116 11.8334 73.0247 12.0118 73.8658 12.3739C74.6233 12.7283 75.2843 13.2599 75.7929 13.9239C76.8941 15.3337 77.5199 17.4024 77.5212 20.2654V20.2692C77.5212 23.2194 76.896 25.3145 75.8343 26.6669C75.3329 27.3175 74.6784 27.834 73.9291 28.1704C73.0651 28.5289 72.1363 28.7049 71.201 28.6871C70.3206 28.7391 69.4407 28.577 68.6366 28.2144C67.8326 27.8519 67.1285 27.2998 66.5846 26.6055C65.4699 25.1918 64.8408 23.1413 64.8408 20.3086V20.3047C64.8408 17.3294 65.4725 15.2239 66.5445 13.8748" fill="#272827"/>
<path d="M39.375 1.84011V30.8757C39.3748 31.0412 39.4073 31.2052 39.4705 31.3581C39.5338 31.5111 39.6266 31.65 39.7436 31.7671C39.8607 31.8841 39.9997 31.9769 40.1526 32.0402C40.3056 32.1034 40.4695 32.1359 40.635 32.1357H42.1463C42.4734 32.1298 42.7855 31.9973 43.017 31.766C43.2484 31.5348 43.3813 31.2229 43.3876 30.8957V18.0113C43.3951 17.2807 43.5277 16.5568 43.7796 15.8709C44.0442 15.1283 44.4363 14.4374 44.9382 13.8295C45.431 13.2259 46.044 12.7315 46.7382 12.3776C47.473 12.0134 48.2852 11.833 49.1052 11.8519C50.0267 11.8012 50.9432 12.0176 51.7447 12.4751C52.3776 12.8848 52.8668 13.4817 53.1442 14.1827C53.4991 15.0802 53.6717 16.0395 53.6519 17.0044V30.877C53.6519 31.2112 53.7846 31.5317 54.0209 31.768C54.2572 32.0043 54.5777 32.137 54.9119 32.137H56.4619C56.7894 32.1314 57.102 31.9988 57.3336 31.7673C57.5653 31.5357 57.698 31.2232 57.7039 30.8957V16.6401C57.7445 15.078 57.424 13.5276 56.7674 12.1096C56.1487 10.8304 55.1601 9.7666 53.9296 9.05606C52.5768 8.31957 51.0529 7.95498 49.5133 7.99947H49.4946C47.8617 7.98364 46.2555 8.41444 44.8497 9.24529C44.3259 9.5568 43.8359 9.92194 43.3876 10.3348V1.84011C43.3876 1.67459 43.355 1.51068 43.2916 1.35777C43.2282 1.20485 43.1354 1.06592 43.0183 0.948904C42.9012 0.831891 42.7622 0.739091 42.6093 0.675807C42.4563 0.612523 42.2924 0.579993 42.1269 0.580078H40.615C40.287 0.585879 39.9741 0.718705 39.7421 0.950594C39.5101 1.18248 39.3771 1.49535 39.3711 1.82332L39.375 1.84011Z" fill="#272827"/>
<path d="M28.9707 4.74441V25.43C28.9746 27.5483 29.3879 29.305 30.5072 30.5508C31.6697 31.8128 33.4134 32.2946 35.4685 32.2946C35.71 32.2946 35.9468 32.287 36.1789 32.272C36.4815 32.256 36.7797 32.1932 37.0631 32.086C37.2977 31.9938 37.4992 31.8334 37.6418 31.6254C37.7843 31.4175 37.8612 31.1717 37.8626 30.9196V29.7881C37.8621 29.4542 37.7291 29.1342 37.4929 28.8984C37.2566 28.6625 36.9364 28.53 36.6026 28.53H36.011C35.4331 28.5431 34.8564 28.4724 34.2989 28.3201C34.0413 28.2634 33.8046 28.1359 33.6156 27.952L33.6014 27.9345C33.3249 27.6387 33.0201 26.8276 33.0201 25.4739V12.1741H35.6506C35.978 12.1683 36.2904 12.0357 36.5219 11.8041C36.7535 11.5726 36.8861 11.2602 36.8919 10.9328V9.6644C36.8919 9.33022 36.7592 9.00973 36.5229 8.77343C36.2866 8.53712 35.9661 8.40437 35.6319 8.40437H33.0233V4.74441C33.0233 4.41022 32.8906 4.08973 32.6543 3.85343C32.418 3.61713 32.0975 3.48438 31.7633 3.48438H30.2133C29.8854 3.49018 29.5727 3.62305 29.3409 3.85498C29.109 4.0869 28.9763 4.39976 28.9707 4.72761V4.74441Z" fill="#272827"/>
<path d="M7.45642 25.3535V25.3684C7.42771 26.7321 7.80029 28.0741 8.52787 29.2279C9.25673 30.3345 10.2986 31.199 11.5207 31.7111C12.882 32.2663 14.3431 32.5351 15.8129 32.501C16.9437 32.4878 18.0636 32.2784 19.1228 31.8823C20.3141 31.444 21.4163 30.7937 22.3759 29.9629C22.5652 29.8014 22.7434 29.629 22.9171 29.452C23.0294 30.1872 23.2787 30.8948 23.6521 31.5381C23.7643 31.7221 23.9221 31.8741 24.1103 31.9792C24.2984 32.0843 24.5106 32.139 24.7261 32.138L25.4637 32.1296C25.7954 32.1259 26.1123 31.9915 26.3455 31.7556C26.5787 31.5197 26.7095 31.2013 26.7095 30.8696V17.3716C26.7461 15.7162 26.4343 14.0717 25.7944 12.5446C25.1803 11.1305 24.1327 9.94807 22.8028 9.16815C21.3051 8.34842 19.6144 7.94687 17.908 8.00564C16.2261 7.96339 14.5564 8.30254 13.0242 8.99765C11.6506 9.64583 10.4949 10.6791 9.69748 11.9717L9.69167 11.9808C9.58493 12.153 9.52834 12.3516 9.52827 12.5543C9.52978 12.7924 9.60513 13.0242 9.74394 13.2178C9.88275 13.4113 10.0782 13.557 10.3033 13.6348L11.5401 14.0746C11.7283 14.1415 11.9267 14.1756 12.1265 14.1753C12.3895 14.1748 12.6491 14.1158 12.8865 14.0025C13.1238 13.8892 13.333 13.7246 13.4989 13.5205C13.6157 13.3774 13.7404 13.241 13.8722 13.1116C14.6814 12.3263 15.882 11.8632 17.7472 11.8561C18.5512 11.8371 19.3522 11.962 20.1123 12.2249C20.6568 12.421 21.1386 12.7598 21.5073 13.2059C22.2074 14.0649 22.6478 15.3927 22.6892 17.2954C20.8886 17.3238 19.2914 17.3987 17.91 17.5279C16.1753 17.6826 14.4646 18.0387 12.8124 18.589H12.8065L12.7917 18.5935C11.2803 19.0057 9.92089 19.8472 8.87791 21.0161C7.90674 22.2386 7.403 23.7672 7.45707 25.3277L7.45642 25.3535ZM21.7811 25.1436C21.1763 26.1984 20.3219 27.0886 19.2927 27.736C18.2898 28.3737 17.1227 28.7052 15.9343 28.6899C14.7337 28.775 13.5415 28.4351 12.5663 27.7295C12.2279 27.4553 11.9581 27.1059 11.7784 26.7091C11.592 26.2529 11.5004 25.7636 11.5091 25.2708C11.5 24.6916 11.6451 24.1203 11.9295 23.6156C12.3093 23.0565 12.8481 22.6243 13.4763 22.3749C14.7248 21.8506 16.0418 21.5076 17.3875 21.3564C19.1494 21.1244 20.9238 20.9998 22.7008 20.9831V21.7626C22.7049 22.9517 22.3874 24.1197 21.7818 25.143" fill="#272827"/>
</g>
<defs>
<clipPath id="clip0_442_33330">
<rect width="129.168" height="32" fill="white" transform="translate(0.136719 0.5)"/>
</clipPath>
</defs>
</svg>
