<svg width="24" height="24" viewBox="0 0 24 24" fill="none" xmlns="http://www.w3.org/2000/svg">
<g clip-path="url(#clip0_1872_1016)">
<path d="M20.4853 3.51469C18.2188 1.24823 15.2053 0 12 0C8.79469 0 5.78123 1.24823 3.51469 3.51469C1.24823 5.78119 0 8.79469 0 12C0 15.2053 1.24823 18.2188 3.51469 20.4853C5.78123 22.7518 8.79469 24 12 24C15.2053 24 18.2188 22.7518 20.4853 20.4853C22.7518 18.2188 24 15.2053 24 12C24 8.79469 22.7518 5.78119 20.4853 3.51469ZM9.72417 1.65319C9.32166 2.04473 8.88661 2.51133 8.45133 3.05442C7.69861 3.99366 7.07184 5.00456 6.58162 6.06764H3.22725C4.72552 3.85912 7.03514 2.24419 9.72417 1.65319ZM2.4232 7.47389H6.02409C5.61427 8.69808 5.37586 9.97856 5.31361 11.2969H1.43016C1.51973 9.93708 1.8667 8.64666 2.4232 7.47389ZM1.43016 12.7031H5.31361C5.37586 14.0214 5.61422 15.3019 6.02409 16.5261H2.4232C1.8667 15.3533 1.51973 14.0629 1.43016 12.7031ZM3.22725 17.9324H6.58162C7.07184 18.9954 7.69861 20.0063 8.45133 20.9456C8.88656 21.4887 9.32161 21.9553 9.72417 22.3468C7.03514 21.7558 4.72552 20.1409 3.22725 17.9324ZM11.2969 21.8815C10.7961 21.4498 10.1735 20.8458 9.54867 20.0662C9.00225 19.3843 8.5343 18.6723 8.14444 17.9324H11.2969V21.8815ZM11.2969 16.5261H7.51022C7.05314 15.3156 6.78989 14.0388 6.72164 12.7031H11.2969V16.5261ZM11.2969 11.2969H6.72164C6.78994 9.96141 7.05352 8.68467 7.51078 7.47389H11.2969V11.2969ZM11.2969 6.06764H8.14444C8.52628 5.34286 8.98322 4.64494 9.5152 3.97575C10.148 3.17986 10.7853 2.56144 11.2969 2.12044V6.06764ZM22.5698 11.2969H18.6864C18.6241 9.97856 18.3858 8.69808 17.9759 7.47389H21.5768C22.1333 8.64666 22.4803 9.93708 22.5698 11.2969ZM20.7728 6.06764H17.4184C16.9282 5.00461 16.3014 3.99366 15.5487 3.05442C15.1134 2.51133 14.6784 2.04473 14.2758 1.65319C16.9649 2.24419 19.2745 3.85912 20.7728 6.06764ZM12.7031 2.11847C13.2039 2.55023 13.8265 3.15422 14.4513 3.93384C14.9978 4.61569 15.4657 5.32767 15.8556 6.06764H12.7031V2.11847ZM12.7031 7.47389H16.4898C16.9469 8.68444 17.2101 9.96122 17.2784 11.2969H12.7031V7.47389ZM12.7031 12.7031H17.2783C17.21 14.0386 16.9464 15.3153 16.4892 16.5261H12.7031V12.7031ZM12.7031 21.8795V17.9324H15.8556C15.4737 18.6571 15.0168 19.3551 14.4848 20.0242C13.852 20.8201 13.2147 21.4385 12.7031 21.8795ZM14.2759 22.3468C14.6784 21.9553 15.1134 21.4887 15.5487 20.9456C16.3014 20.0063 16.9282 18.9954 17.4184 17.9324H20.7728C19.2745 20.1409 16.9649 21.7558 14.2759 22.3468ZM21.5768 16.5261H17.9759C18.3857 15.3019 18.6241 14.0214 18.6864 12.7031H22.5698C22.4803 14.0629 22.1333 15.3533 21.5768 16.5261Z" fill="#2B76DD"/>
</g>
<defs>
<clipPath id="clip0_1872_1016">
<rect width="24" height="24" fill="white"/>
</clipPath>
</defs>
</svg>
