<svg width="23" height="22" viewBox="0 0 23 22" fill="none" xmlns="http://www.w3.org/2000/svg">
<g clip-path="url(#clip0_1872_556)">
<path d="M22.1851 6.3515C22.1345 5.20362 21.9488 4.41446 21.6829 3.73065C21.4086 3.0048 20.9866 2.35494 20.4337 1.81471C19.8934 1.26608 19.2393 0.839767 18.5219 0.569736C17.8341 0.303826 17.049 0.1182 15.9012 0.0675902C14.7447 0.0126938 14.3776 0 11.4445 0C8.51142 0 8.14429 0.0126938 6.99212 0.063304C5.84424 0.113914 5.05509 0.299705 4.37144 0.56545C3.64542 0.839767 2.99557 1.26179 2.45534 1.81471C1.9067 2.35494 1.48056 3.00908 1.21036 3.72653C0.944451 4.41446 0.758825 5.19933 0.708215 6.34721C0.653319 7.50366 0.640625 7.87079 0.640625 10.8039C0.640625 13.737 0.653319 14.1041 0.703929 15.2563C0.754539 16.4041 0.94033 17.1933 1.20624 17.8771C1.48056 18.603 1.9067 19.2528 2.45534 19.793C2.99557 20.3417 3.64971 20.768 4.36715 21.038C5.05509 21.3039 5.83996 21.4896 6.988 21.5402C8.14 21.5909 8.5073 21.6035 11.4404 21.6035C14.3735 21.6035 14.7406 21.5909 15.8928 21.5402C17.0406 21.4896 17.8298 21.3039 18.5134 21.038C19.9653 20.4767 21.1132 19.3288 21.6745 17.8771C21.9403 17.1892 22.1261 16.4041 22.1767 15.2563C22.2273 14.1041 22.24 13.737 22.24 10.8039C22.24 7.87079 22.2357 7.50366 22.1851 6.3515ZM20.2396 15.1719C20.1931 16.2269 20.0159 16.7967 19.8682 17.1765C19.5052 18.1176 18.7583 18.8646 17.8171 19.2276C17.4373 19.3753 16.8634 19.5525 15.8125 19.5988C14.673 19.6496 14.3313 19.6621 11.4488 19.6621C8.56631 19.6621 8.22029 19.6496 7.08494 19.5988C6.02987 19.5525 5.46013 19.3753 5.08031 19.2276C4.61196 19.0545 4.18565 18.7802 3.83962 18.4215C3.4809 18.0711 3.20658 17.6491 3.03348 17.1808C2.88577 16.8009 2.70855 16.2269 2.66223 15.1761C2.61146 14.0367 2.59893 13.6948 2.59893 10.8123C2.59893 7.92981 2.61146 7.58378 2.66223 6.4486C2.70855 5.39353 2.88577 4.8238 3.03348 4.44397C3.20658 3.97546 3.4809 3.54931 3.8439 3.20311C4.19405 2.84439 4.61608 2.57008 5.0846 2.39714C5.46442 2.24943 6.03844 2.07222 7.08922 2.02573C8.22869 1.97512 8.5706 1.96242 11.4529 1.96242C14.3397 1.96242 14.6814 1.97512 15.8168 2.02573C16.8718 2.07222 17.4416 2.24943 17.8214 2.39714C18.2897 2.57008 18.7161 2.84439 19.0621 3.20311C19.4208 3.55343 19.6951 3.97546 19.8682 4.44397C20.0159 4.8238 20.1931 5.39765 20.2396 6.4486C20.2902 7.58807 20.3029 7.92981 20.3029 10.8123C20.3029 13.6948 20.2902 14.0324 20.2396 15.1719Z" fill="#E6F2FC"/>
<path d="M11.4461 5.25439C8.38232 5.25439 5.89648 7.74006 5.89648 10.804C5.89648 13.868 8.38232 16.3537 11.4461 16.3537C14.5101 16.3537 16.9958 13.868 16.9958 10.804C16.9958 7.74006 14.5101 5.25439 11.4461 5.25439ZM11.4461 14.404C9.45849 14.404 7.84621 12.7919 7.84621 10.804C7.84621 8.81623 9.45849 7.20412 11.4461 7.20412C13.4339 7.20412 15.0461 8.81623 15.0461 10.804C15.0461 12.7919 13.4339 14.404 11.4461 14.404Z" fill="#E6F2FC"/>
<path d="M18.5093 5.03485C18.5093 5.75031 17.9292 6.33043 17.2136 6.33043C16.4981 6.33043 15.918 5.75031 15.918 5.03485C15.918 4.31921 16.4981 3.73926 17.2136 3.73926C17.9292 3.73926 18.5093 4.31921 18.5093 5.03485Z" fill="#E6F2FC"/>
</g>
<defs>
<clipPath id="clip0_1872_556">
<rect width="21.6035" height="21.6035" fill="white" transform="translate(0.603516)"/>
</clipPath>
</defs>
</svg>
