<svg width="22" height="22" viewBox="0 0 22 22" fill="none" xmlns="http://www.w3.org/2000/svg">
<g clip-path="url(#clip0_1872_560)">
<path d="M21.8044 21.6037L21.8098 21.6028V13.6797C21.8098 9.80366 20.9754 6.81787 16.4441 6.81787C14.2657 6.81787 12.8039 8.01327 12.2071 9.14655H12.1441V7.17973H7.84766V21.6028H12.3214V14.461C12.3214 12.5806 12.6778 10.7623 15.0065 10.7623C17.301 10.7623 17.3352 12.9083 17.3352 14.5816V21.6037H21.8044Z" fill="#E6F2FC"/>
<path d="M0.564453 7.18018H5.04359V21.6032H0.564453V7.18018Z" fill="#E6F2FC"/>
<path d="M2.80126 0C1.36912 0 0.207031 1.16209 0.207031 2.59422C0.207031 4.02636 1.36912 5.21275 2.80126 5.21275C4.23339 5.21275 5.39548 4.02636 5.39548 2.59422C5.39458 1.16209 4.23249 0 2.80126 0Z" fill="#E6F2FC"/>
</g>
<defs>
<clipPath id="clip0_1872_560">
<rect width="21.6035" height="21.6035" fill="white" transform="translate(0.207031)"/>
</clipPath>
</defs>
</svg>
