<svg width="26" height="34" viewBox="0 0 26 34" fill="none" xmlns="http://www.w3.org/2000/svg">
<g clip-path="url(#clip0_406_25828)">
<path fill-rule="evenodd" clip-rule="evenodd" d="M19.1944 29.4067C17.6477 31.1029 15.8464 32.6219 13.8238 33.8504C13.5747 34.033 13.2372 34.0552 12.9605 33.8781C9.9722 31.9772 7.4626 29.6945 5.48978 27.2126C2.76712 23.7982 1.05439 20.013 0.467805 16.3662C-0.129851 12.6696 0.429068 9.11133 2.26907 6.21989C2.99401 5.07715 3.92093 4.03679 5.04984 3.13754C7.64521 1.07064 10.6086 -0.022294 13.5637 -0.000158584C16.4081 0.0219768 19.2165 1.08171 21.6431 3.29802C22.4953 4.07276 23.2119 4.96094 23.7985 5.92383C25.7769 9.18327 26.203 13.3392 25.3342 17.5505C24.4764 21.7119 22.3459 25.9398 19.1944 29.3984V29.4067ZM12.9992 6.57406C16.5077 6.57406 19.3493 9.41846 19.3493 12.9242C19.3493 16.4326 16.5049 19.2743 12.9992 19.2743C9.49075 19.2743 6.64912 16.4326 6.64912 12.9242C6.64635 9.41569 9.49075 6.57406 12.9992 6.57406Z" fill="#E6F2FC"/>
</g>
<defs>
<clipPath id="clip0_406_25828">
<rect width="25.5249" height="34" fill="white" transform="translate(0.238281)"/>
</clipPath>
</defs>
</svg>
