<svg width="22" height="22" viewBox="0 0 22 22" fill="none" xmlns="http://www.w3.org/2000/svg">
<g clip-path="url(#clip0_1820_1379)">
<path d="M10.9987 0C11.7291 0 12.4458 0.0726894 13.141 0.210191C13.8513 0.351093 14.5407 0.562 15.201 0.835212C15.8724 1.11326 16.5103 1.45576 17.1065 1.85394C17.7133 2.2591 18.2728 2.71815 18.7766 3.22197C19.2804 3.72596 19.7404 4.28563 20.1453 4.89257C20.5437 5.48787 20.8857 6.12578 21.1634 6.797C21.4364 7.45729 21.6477 8.14676 21.7882 8.85701C21.9262 9.55203 21.9987 10.2687 21.9987 10.9999C21.9987 11.7311 21.9264 12.4474 21.7882 13.1426C21.6477 13.8529 21.4364 14.5424 21.1634 15.2026C20.8853 15.874 20.543 16.512 20.1444 17.1081C19.7395 17.7146 19.2808 18.274 18.7768 18.7779C18.2726 19.2817 17.7131 19.7413 17.106 20.1468C16.5105 20.5448 15.8726 20.8871 15.2012 21.1648C14.5409 21.4378 13.8514 21.6487 13.1412 21.7896C12.446 21.9275 11.7291 21.9998 10.9988 21.9998C10.2682 21.9998 9.55131 21.9275 8.85593 21.7896C8.14605 21.6487 7.45621 21.4378 6.79592 21.1648C6.12453 20.8867 5.48662 20.5441 4.89042 20.1459C4.28366 19.7409 3.72417 19.2818 3.22053 18.7779L3.18741 18.7422C2.6938 18.2425 2.24639 17.6941 1.8534 17.1053C1.45558 16.5094 1.11326 15.8719 0.835391 15.2009C0.562358 14.5406 0.351093 13.8511 0.21037 13.1408C0.0726894 12.446 0 11.7295 0 10.9983C0 10.2673 0.0726894 9.5506 0.210549 8.85557C0.351272 8.14533 0.562358 7.45586 0.83557 6.79556C1.11183 6.12596 1.45468 5.48841 1.85465 4.88988C2.25659 4.28903 2.71583 3.73061 3.2234 3.2234C3.72632 2.71815 4.28599 2.25874 4.89311 1.85322C5.48751 1.45594 6.12507 1.11362 6.79538 0.836286C7.45281 0.562895 8.14282 0.35163 8.85593 0.21037C9.55096 0.0726894 10.2676 0 10.9987 0ZM9.79445 3.86131L15.6121 16.5719L15.818 16.3947C15.9027 16.3184 16.0012 16.2241 16.1127 16.1125C16.4536 15.7716 16.7581 15.4026 17.0192 15.0123C17.28 14.6224 17.5042 14.2049 17.6846 13.7671C17.8615 13.3387 17.9998 12.8859 18.0927 12.4134C18.1826 11.9585 18.2298 11.4844 18.2298 10.9967C18.2298 10.5088 18.1826 10.0347 18.0927 9.57978C17.9996 9.10766 17.8615 8.65451 17.6846 8.22626C17.5031 7.78779 17.2786 7.36992 17.0174 6.97926C16.7565 6.58985 16.453 6.22157 16.1127 5.88104L16.0826 5.84899C15.7535 5.52439 15.3948 5.23041 15.0121 4.97457C14.6218 4.71353 14.205 4.48955 13.7673 4.30891C13.3392 4.13237 12.8861 3.99434 12.4136 3.90124C11.9583 3.81136 11.4842 3.76409 10.9967 3.76409C10.7956 3.76409 10.601 3.77161 10.4154 3.78629C10.2104 3.80223 10.0209 3.82443 9.84852 3.852L9.79445 3.86131ZM12.2025 18.1349L6.38503 5.42324L6.17985 5.59977C6.08353 5.68607 5.98416 5.7806 5.88301 5.8814C5.54337 6.22354 5.23865 6.59253 4.97761 6.98284C4.71693 7.3726 4.49278 7.79012 4.31213 8.22787C4.13524 8.65613 3.9972 9.10909 3.9041 9.58139C3.8144 10.0363 3.76696 10.5104 3.76696 10.9983C3.76696 11.486 3.8144 11.9603 3.9041 12.4152C3.9972 12.8877 4.13524 13.3405 4.31213 13.7689C4.49385 14.207 4.71836 14.6249 4.97976 15.0163C5.24008 15.4055 5.54391 15.774 5.88408 16.1143C6.22497 16.4552 6.59397 16.7597 6.98427 17.0208C7.37439 17.282 7.79173 17.5058 8.22948 17.6866C8.65756 17.8632 9.1107 18.0014 9.583 18.0943C10.0385 18.1842 10.5126 18.2314 10.9999 18.2314C11.2013 18.2314 11.3956 18.2241 11.5814 18.2094C11.7873 18.1933 11.9776 18.1709 12.1508 18.1433L12.2025 18.1349Z" fill="#D8453E"/>
</g>
<defs>
<clipPath id="clip0_1820_1379">
<rect width="21.9986" height="22" fill="white"/>
</clipPath>
</defs>
</svg>
