<svg width="166" height="173" viewBox="0 0 166 173" fill="none" xmlns="http://www.w3.org/2000/svg">
<path d="M0.184918 166.448C-0.120116 166.908 0.00583625 167.529 0.466241 167.834L7.96897 172.804C8.42937 173.109 9.04988 172.984 9.35492 172.523C9.65995 172.063 9.534 171.442 9.0736 171.137L2.4045 166.719L6.82302 160.05C7.12805 159.589 7.0021 158.969 6.54169 158.664C6.08129 158.359 5.46078 158.485 5.15574 158.945L0.184918 166.448ZM1.21748 167.98C1.89774 167.842 2.57545 167.704 3.25062 167.565L2.8482 165.606C2.17456 165.744 1.49837 165.882 0.81963 166.02L1.21748 167.98ZM9.2588 166.309C10.5788 166.028 11.8887 165.745 13.1887 165.462L12.7627 163.508C11.466 163.791 10.1593 164.072 8.8424 164.352L9.2588 166.309ZM18.971 164.179C20.2411 163.892 21.5012 163.604 22.7515 163.315L22.3009 161.367C21.054 161.655 19.7972 161.942 18.5304 162.228L18.971 164.179ZM28.5094 161.959C29.8508 161.638 31.1803 161.315 32.4982 160.99L32.0202 159.048C30.7062 159.372 29.3805 159.694 28.043 160.015L28.5094 161.959ZM38.3496 159.522C39.6324 159.194 40.9037 158.864 42.1634 158.534L41.6555 156.599C40.3999 156.929 39.1327 157.257 37.8539 157.585L38.3496 159.522ZM47.7547 157.037C49.0659 156.679 50.3641 156.32 51.6493 155.96L51.1091 154.034C49.8285 154.393 48.5348 154.751 47.2281 155.108L47.7547 157.037ZM57.526 154.275C58.8114 153.899 60.0831 153.521 61.3413 153.142L60.7643 151.227C59.5111 151.605 58.2443 151.981 56.9639 152.356L57.526 154.275ZM66.9124 151.427C68.1776 151.029 69.4283 150.629 70.6647 150.228L70.0479 148.326C68.817 148.725 67.5718 149.122 66.3121 149.519L66.9124 151.427ZM76.498 148.291C77.77 147.858 79.0259 147.424 80.2659 146.988L79.6027 145.101C78.3691 145.534 77.1195 145.967 75.8537 146.397L76.498 148.291ZM85.7388 145.017C87.0083 144.548 88.26 144.078 89.494 143.606L88.7799 141.738C87.5532 142.207 86.3087 142.674 85.0463 143.14L85.7388 145.017ZM95.1791 141.372C96.4138 140.873 97.6294 140.373 98.8262 139.871L98.0525 138.026C96.864 138.525 95.6564 139.022 94.4298 139.518L95.1791 141.372ZM104.194 137.553C105.47 136.985 106.723 136.416 107.953 135.845L107.111 134.031C105.891 134.597 104.648 135.162 103.381 135.725L104.194 137.553ZM113.335 133.264C114.497 132.688 115.636 132.11 116.753 131.531L115.833 129.755C114.726 130.329 113.598 130.901 112.446 131.472L113.335 133.264ZM122.189 128.603C123.363 127.946 124.509 127.287 125.628 126.627L124.611 124.905C123.506 125.557 122.373 126.208 121.212 126.858L122.189 128.603ZM130.685 123.514C131.853 122.763 132.987 122.011 134.088 121.256L132.957 119.606C131.873 120.349 130.755 121.091 129.604 121.831L130.685 123.514ZM138.821 117.851C139.952 116.996 141.041 116.138 142.091 115.279L140.824 113.731C139.795 114.574 138.725 115.416 137.615 116.256L138.821 117.851ZM146.556 111.394C147.583 110.442 148.563 109.487 149.497 108.531L148.067 107.133C147.156 108.065 146.2 108.997 145.196 109.928L146.556 111.394ZM153.476 104.121C154.377 103.033 155.221 101.945 156.01 100.855L154.39 99.6822C153.627 100.735 152.81 101.79 151.936 102.845L153.476 104.121ZM159.268 95.8088C159.958 94.5965 160.582 93.3842 161.143 92.1724L159.327 91.3327C158.791 92.4923 158.193 93.6548 157.53 94.8196L159.268 95.8088ZM163.315 86.4888C163.71 85.1844 164.035 83.8826 164.291 82.5843L162.329 82.1965C162.085 83.4295 161.777 84.6671 161.401 85.9088L163.315 86.4888ZM165.007 76.502C165.06 75.1358 165.041 73.7763 164.954 72.4246L162.958 72.5539C163.041 73.8378 163.059 75.1283 163.009 76.4244L165.007 76.502ZM164.107 66.3902C163.822 65.066 163.474 63.7519 163.066 62.4489L161.158 63.0456C161.547 64.2928 161.88 65.5483 162.152 66.8113L164.107 66.3902ZM160.897 56.7765C160.347 55.5611 159.748 54.3574 159.103 53.1662L157.344 54.119C157.968 55.2699 158.546 56.4308 159.075 57.6008L160.897 56.7765ZM155.958 47.984C155.213 46.8766 154.43 45.7819 153.612 44.7004L152.017 45.9075C152.814 46.9604 153.575 48.0248 154.298 49.0998L155.958 47.984ZM149.793 40.036C148.91 39.0339 147.997 38.045 147.058 37.07L145.618 38.4579C146.538 39.4122 147.43 40.3793 148.293 41.3583L149.793 40.036ZM142.746 32.8621C141.769 31.9633 140.77 31.0782 139.751 30.2075L138.452 31.7279C139.452 32.5833 140.433 33.4522 141.392 34.334L142.746 32.8621ZM135.073 26.4136C134.018 25.6011 132.948 24.8034 131.863 24.0209L130.693 25.643C131.761 26.4134 132.815 27.1986 133.852 27.9979L135.073 26.4136ZM126.908 20.6147C125.791 19.8831 124.664 19.1675 123.527 18.4684L122.479 20.172C123.6 20.8612 124.711 21.5666 125.812 22.2875L126.908 20.6147ZM118.343 15.4274C117.175 14.7746 116.001 14.1395 114.823 13.5226L113.895 15.2945C115.057 15.9029 116.215 16.5293 117.367 17.1731L118.343 15.4274ZM109.451 10.8491C108.231 10.2731 107.01 9.71733 105.79 9.18247L104.987 11.0142C106.19 11.5415 107.394 12.0895 108.597 12.6575L109.451 10.8491ZM100.244 6.89164C98.9842 6.40347 97.7293 5.9389 96.4812 5.4987L95.8159 7.38481C97.0444 7.8181 98.2802 8.27555 99.5209 8.75645L100.244 6.89164ZM90.7494 3.63393C89.4559 3.24926 88.1741 2.89319 86.9072 2.56668L86.408 4.50339C87.6505 4.82358 88.9085 5.17305 90.1793 5.55096L90.7494 3.63393ZM81.0497 1.24886C79.6811 0.988004 78.3366 0.766495 77.0205 0.585775L76.7484 2.56718C78.0283 2.74293 79.3386 2.95873 80.6752 3.21349L81.0497 1.24886ZM70.9824 0.0391736C70.3175 0.013149 69.6627 0 69.0189 0V2C69.6356 2 70.2642 2.01259 70.9042 2.03764L70.9824 0.0391736Z" fill="#408558"/>
</svg>
