<svg width="276" height="161" viewBox="0 0 276 161" fill="none" xmlns="http://www.w3.org/2000/svg">
<path d="M140.166 117L140.036 117.992L140.166 117ZM100.401 154.512C100.132 154.994 100.304 155.603 100.786 155.873L108.642 160.265C109.124 160.534 109.733 160.362 110.003 159.88C110.272 159.398 110.1 158.788 109.618 158.519L102.635 154.615L106.539 147.632C106.808 147.15 106.636 146.541 106.154 146.271C105.672 146.002 105.063 146.174 104.793 146.656L100.401 154.512ZM101.546 155.962C102.22 155.772 102.882 155.558 103.532 155.321L102.848 153.441C102.243 153.662 101.628 153.861 101.002 154.038L101.546 155.962ZM109.11 152.571C110.273 151.835 111.388 151.018 112.453 150.128L111.17 148.593C110.17 149.429 109.126 150.194 108.04 150.881L109.11 152.571ZM116.824 145.747C117.697 144.708 118.523 143.613 119.303 142.466L117.649 141.342C116.906 142.435 116.12 143.476 115.293 144.461L116.824 145.747ZM122.408 137.147C123.011 135.94 123.571 134.695 124.088 133.418L122.234 132.668C121.736 133.898 121.197 135.095 120.619 136.253L122.408 137.147ZM126.074 127.63C126.445 126.334 126.776 125.013 127.066 123.673L125.111 123.25C124.83 124.548 124.51 125.826 124.151 127.081L126.074 127.63ZM128.082 117.643C128.245 116.302 128.37 114.949 128.455 113.587L126.459 113.462C126.376 114.785 126.255 116.099 126.096 117.401L128.082 117.643ZM128.573 107.485C128.541 106.132 128.47 104.776 128.36 103.419L126.367 103.581C126.474 104.899 126.542 106.217 126.574 107.532L128.573 107.485ZM127.603 97.3582C127.376 96.021 127.11 94.6886 126.803 93.3645L124.854 93.8158C125.152 95.1007 125.411 96.3941 125.631 97.6927L127.603 97.3582ZM125.151 87.4799C124.723 86.1898 124.254 84.913 123.743 83.6527L121.889 84.4044C122.384 85.6238 122.838 86.86 123.253 88.1099L125.151 87.4799ZM121.158 78.1047C120.52 76.9027 119.84 75.7224 119.116 74.5672L117.421 75.6293C118.119 76.7429 118.775 77.8815 119.391 79.042L121.158 78.1047ZM115.572 69.5624C114.724 68.4997 113.833 67.4668 112.897 66.4672L111.437 67.8339C112.336 68.7944 113.193 69.7874 114.009 70.8097L115.572 69.5624ZM108.441 62.2504C107.402 61.3807 106.319 60.5474 105.194 59.7535L104.041 61.3877C105.121 62.1497 106.16 62.9496 107.158 63.7844L108.441 62.2504ZM99.9778 56.5326C98.7908 55.8958 97.5646 55.2987 96.2989 54.744L95.496 56.5757C96.7134 57.1093 97.8921 57.6833 99.0325 58.295L99.9778 56.5326ZM90.5569 52.6094C89.9038 52.4074 89.2419 52.2157 88.571 52.0346L88.0497 53.9654C88.6974 54.1403 89.3361 54.3253 89.9659 54.5201L90.5569 52.6094ZM88.571 52.0346C87.9515 51.8673 87.3202 51.7086 86.6779 51.5584L86.2223 53.5058C86.8435 53.6511 87.4529 53.8043 88.0497 53.9654L88.571 52.0346ZM80.8028 50.455C79.51 50.2654 78.1867 50.1029 76.8379 49.9665L76.6367 51.9563C77.9577 52.0899 79.2512 52.2488 80.5126 52.4338L80.8028 50.455ZM70.9018 49.5393C69.5984 49.481 68.2787 49.4439 66.9465 49.4275L66.9218 51.4273C68.2333 51.4435 69.5314 51.48 70.8125 51.5373L70.9018 49.5393ZM61.009 49.4864C59.6961 49.5276 58.3765 49.5871 57.0536 49.6645L57.1703 51.6611C58.4756 51.5848 59.7772 51.526 61.0718 51.4854L61.009 49.4864ZM51.1344 50.1264C49.8221 50.2543 48.5114 50.3988 47.2055 50.5594L47.4497 52.5445C48.7389 52.3859 50.0329 52.2432 51.3283 52.117L51.1344 50.1264ZM41.3295 51.3967C40.0162 51.6097 38.7131 51.8389 37.4235 52.0837L37.7964 54.0486C39.0682 53.8072 40.3538 53.5811 41.6498 53.3709L41.3295 51.3967ZM31.6112 53.3147C30.3174 53.6185 29.044 53.9385 27.7951 54.2739L28.3139 56.2055C29.5416 55.8757 30.7944 55.5609 32.0684 55.2618L31.6112 53.3147ZM22.0911 55.9722C20.796 56.399 19.5384 56.844 18.3241 57.3067L19.0361 59.1756C20.2201 58.7246 21.4488 58.2896 22.717 57.8718L22.0911 55.9722ZM12.8502 59.6591C11.5897 60.2729 10.4006 60.9107 9.293 61.5718L10.318 63.2891C11.3713 62.6605 12.51 62.0492 13.7257 61.4573L12.8502 59.6591ZM4.36676 65.1702C3.27696 66.1767 2.35864 67.2343 1.64918 68.3423L3.33351 69.4208C3.93342 68.4838 4.73285 67.5546 5.72367 66.6395L4.36676 65.1702ZM0.0495285 74.5308C0.194259 75.8851 0.65591 77.2426 1.43738 78.5938L3.16869 77.5926C2.50834 76.4507 2.14947 75.3594 2.03821 74.3183L0.0495285 74.5308ZM5.48092 83.2917C6.43044 84.1185 7.50929 84.9463 8.72203 85.775L9.85033 84.1236C8.69302 83.3329 7.67726 82.5522 6.79425 81.7834L5.48092 83.2917ZM13.8393 88.8493C14.9212 89.4283 16.0727 90.0084 17.2959 90.5892L18.1538 88.7826C16.9572 88.2143 15.8345 87.6487 14.7831 87.0859L13.8393 88.8493ZM22.798 93.0072C23.9526 93.479 25.1565 93.9512 26.4108 94.4237L27.1158 92.5521C25.8778 92.0857 24.6911 91.6202 23.5545 91.1558L22.798 93.0072ZM32.0317 96.4274C33.2251 96.8308 34.4565 97.2344 35.7266 97.6379L36.3322 95.7318C35.0733 95.3318 33.8535 94.9321 32.6722 94.5327L32.0317 96.4274ZM41.4809 99.3878C42.677 99.7364 43.9029 100.085 45.159 100.433L45.6934 98.506C44.4454 98.1599 43.228 97.8138 42.0405 97.4677L41.4809 99.3878ZM51.0172 101.999C52.2327 102.313 53.4733 102.626 54.7394 102.939L55.2193 100.997C53.9595 100.686 52.7254 100.374 51.5167 100.063L51.0172 101.999ZM60.4278 104.302C61.7284 104.605 63.0535 104.907 64.4035 105.209L64.8399 103.257C63.4954 102.957 62.1759 102.656 60.881 102.355L60.4278 104.302ZM70.0395 106.436C71.2916 106.702 72.5634 106.967 73.8552 107.232L74.2569 105.273C72.9695 105.009 71.7021 104.745 70.4545 104.48L70.0395 106.436ZM79.8033 108.421C81.0546 108.665 82.3232 108.909 83.6094 109.152L83.9811 107.187C82.6986 106.945 81.4336 106.702 80.1861 106.458L79.8033 108.421ZM89.2889 110.203C90.5756 110.436 91.8787 110.669 93.1985 110.901L93.5449 108.931C92.2284 108.699 90.9285 108.467 89.6452 108.235L89.2889 110.203ZM99.1878 111.932C100.416 112.139 101.659 112.346 102.915 112.552L103.239 110.578C101.986 110.372 100.746 110.166 99.5202 109.96L99.1878 111.932ZM108.659 113.478C109.956 113.683 111.267 113.888 112.592 114.092L112.897 112.115C111.574 111.911 110.266 111.707 108.971 111.502L108.659 113.478ZM118.611 115.003C119.846 115.186 121.091 115.369 122.349 115.551L122.636 113.572C121.381 113.39 120.137 113.207 118.905 113.024L118.611 115.003ZM128.086 116.37C129.378 116.552 130.682 116.733 131.998 116.913L132.27 114.932C130.956 114.752 129.654 114.571 128.364 114.39L128.086 116.37ZM138 117.723C138.676 117.813 139.355 117.902 140.036 117.992L140.296 116.008C139.616 115.919 138.938 115.83 138.263 115.74L138 117.723ZM140.036 117.992C140.736 118.083 141.433 118.174 142.126 118.262L142.38 116.279C141.689 116.19 140.994 116.1 140.296 116.008L140.036 117.992ZM148.279 119.021C149.627 119.181 150.962 119.334 152.285 119.482L152.507 117.495C151.189 117.347 149.858 117.194 148.514 117.035L148.279 119.021ZM158.199 120.113C159.603 120.255 160.991 120.391 162.365 120.519L162.551 118.528C161.183 118.4 159.799 118.265 158.401 118.123L158.199 120.113ZM168.446 121.052C169.775 121.16 171.089 121.262 172.389 121.356L172.535 119.362C171.241 119.267 169.932 119.166 168.608 119.058L168.446 121.052ZM178.56 121.764C179.935 121.845 181.293 121.918 182.634 121.983L182.731 119.985C181.397 119.92 180.046 119.848 178.677 119.767L178.56 121.764ZM188.554 122.225C189.975 122.271 191.376 122.308 192.757 122.337L192.798 120.337C191.426 120.309 190.033 120.272 188.619 120.226L188.554 122.225ZM198.834 122.403C200.183 122.404 201.511 122.396 202.819 122.379L202.793 120.379C201.495 120.396 200.176 120.404 198.836 120.403L198.834 122.403ZM209.033 122.224C210.378 122.174 211.7 122.113 212.998 122.042L212.889 120.045C211.602 120.115 210.292 120.175 208.958 120.225L209.033 122.224ZM219.184 121.611C220.544 121.495 221.875 121.367 223.178 121.226L222.964 119.238C221.676 119.376 220.359 119.503 219.014 119.618L219.184 121.611ZM229.296 120.449C230.652 120.249 231.974 120.034 233.263 119.805L232.913 117.836C231.644 118.061 230.342 118.273 229.005 118.47L229.296 120.449ZM239.323 118.568C240.646 118.259 241.929 117.934 243.173 117.592L242.642 115.663C241.425 115.998 240.168 116.317 238.869 116.62L239.323 118.568ZM249.112 115.723C250.447 115.245 251.727 114.743 252.953 114.219L252.167 112.38C250.98 112.888 249.737 113.375 248.438 113.84L249.112 115.723ZM258.482 111.502C259.715 110.806 260.878 110.08 261.971 109.326L260.836 107.679C259.794 108.398 258.682 109.092 257.499 109.761L258.482 111.502ZM266.794 105.398C267.83 104.396 268.772 103.357 269.624 102.283L268.057 101.04C267.261 102.043 266.378 103.018 265.404 103.961L266.794 105.398ZM272.971 96.9926C273.591 95.726 274.111 94.4258 274.534 93.0956L272.629 92.4887C272.234 93.7273 271.751 94.9364 271.175 96.1135L272.971 96.9926ZM275.808 86.9556C275.952 85.5906 276.014 84.2035 275.998 82.7974L273.998 82.8201C274.013 84.1529 273.954 85.462 273.819 86.7453L275.808 86.9556ZM275.457 76.5931C275.247 75.261 274.977 73.9161 274.652 72.5603L272.707 73.0267C273.021 74.3347 273.28 75.6282 273.482 76.9053L275.457 76.5931ZM272.909 66.6311C272.471 65.3619 271.99 64.0857 271.469 62.8039L269.616 63.5567C270.124 64.8074 270.592 66.0504 271.019 67.2841L272.909 66.6311ZM268.958 57.1929C268.366 55.9771 267.741 54.758 267.087 53.537L265.324 54.4813C265.967 55.6809 266.579 56.8772 267.16 58.0689L268.958 57.1929ZM264.054 48.2047C263.362 47.0528 262.645 45.9006 261.907 44.7492L260.223 45.8286C260.952 46.9645 261.658 48.1004 262.34 49.2353L264.054 48.2047ZM258.505 39.6651C257.731 38.5544 256.939 37.4458 256.13 36.3403L254.516 37.5213C255.316 38.6148 256.099 39.7108 256.864 40.8085L258.505 39.6651ZM252.44 31.4622C251.609 30.3984 250.765 29.3387 249.908 28.2842L248.356 29.5451C249.204 30.59 250.041 31.6396 250.864 32.6932L252.44 31.4622ZM245.993 23.5943C245.11 22.5646 244.218 21.5413 243.316 20.5251L241.82 21.8521C242.714 22.8601 243.599 23.8751 244.475 24.8961L245.993 23.5943ZM239.213 16.0077C238.287 15.0116 237.354 14.0241 236.417 13.046L234.973 14.4299C235.904 15.4009 236.829 16.3811 237.749 17.3696L239.213 16.0077ZM232.146 8.68717C231.183 7.72562 230.217 6.77509 229.25 5.8365L227.857 7.27181C228.818 8.20384 229.777 9.14768 230.733 10.1024L232.146 8.68717ZM224.821 1.62988C224.327 1.17069 223.834 0.714967 223.34 0.262833L221.989 1.73717C222.479 2.18612 222.969 2.63864 223.459 3.09462L224.821 1.62988Z" fill="#408558"/>
</svg>
