<svg width="166" height="173" viewBox="0 0 166 173" fill="none" xmlns="http://www.w3.org/2000/svg">
<path d="M164.852 166.448C165.157 166.908 165.031 167.529 164.571 167.834L157.068 172.804C156.608 173.109 155.987 172.984 155.682 172.523C155.377 172.063 155.503 171.442 155.964 171.137L162.633 166.719L158.214 160.05C157.909 159.589 158.035 158.969 158.495 158.664C158.956 158.359 159.576 158.485 159.881 158.945L164.852 166.448ZM163.82 167.98C163.139 167.842 162.462 167.704 161.786 167.565L162.189 165.606C162.863 165.744 163.539 165.882 164.217 166.02L163.82 167.98ZM155.778 166.309C154.458 166.028 153.148 165.745 151.848 165.462L152.274 163.508C153.571 163.791 154.878 164.072 156.195 164.352L155.778 166.309ZM146.066 164.179C144.796 163.892 143.536 163.604 142.286 163.315L142.736 161.367C143.983 161.655 145.24 161.942 146.507 162.228L146.066 164.179ZM136.528 161.959C135.186 161.638 133.857 161.315 132.539 160.99L133.017 159.048C134.331 159.372 135.657 159.694 136.994 160.015L136.528 161.959ZM126.688 159.522C125.405 159.194 124.133 158.864 122.874 158.534L123.382 156.599C124.637 156.929 125.904 157.257 127.183 157.585L126.688 159.522ZM117.282 157.037C115.971 156.679 114.673 156.32 113.388 155.96L113.928 154.034C115.209 154.393 116.502 154.751 117.809 155.108L117.282 157.037ZM107.511 154.275C106.226 153.899 104.954 153.521 103.696 153.142L104.273 151.227C105.526 151.605 106.793 151.981 108.073 152.356L107.511 154.275ZM98.1247 151.427C96.8596 151.029 95.6088 150.629 94.3724 150.228L94.9892 148.326C96.2201 148.725 97.4653 149.122 98.725 149.519L98.1247 151.427ZM88.5392 148.291C87.2671 147.858 86.0112 147.424 84.7712 146.988L85.4344 145.101C86.668 145.534 87.9176 145.967 89.1834 146.397L88.5392 148.291ZM79.2983 145.017C78.0288 144.548 76.7771 144.078 75.5431 143.606L76.2572 141.738C77.484 142.207 78.7284 142.674 79.9908 143.14L79.2983 145.017ZM69.858 141.372C68.6233 140.873 67.4077 140.373 66.2109 139.871L66.9846 138.026C68.1732 138.525 69.3807 139.022 70.6073 139.518L69.858 141.372ZM60.8432 137.553C59.5671 136.985 58.3141 136.416 57.0841 135.845L57.9262 134.031C59.1462 134.597 60.3893 135.162 61.6558 135.725L60.8432 137.553ZM51.7025 133.264C50.5405 132.688 49.401 132.11 48.2837 131.531L49.2043 129.755C50.3107 130.329 51.4395 130.901 52.5909 131.472L51.7025 133.264ZM42.8477 128.603C41.6743 127.946 40.5283 127.287 39.4093 126.627L40.4259 124.905C41.5315 125.557 42.6643 126.208 43.8247 126.858L42.8477 128.603ZM34.352 123.514C33.1845 122.763 32.0505 122.011 30.9495 121.256L32.0798 119.606C33.1642 120.349 34.2819 121.091 35.4334 121.831L34.352 123.514ZM26.2156 117.851C25.0854 116.996 23.9958 116.138 22.9462 115.279L24.2129 113.731C25.2423 114.574 26.3118 115.416 27.4225 116.256L26.2156 117.851ZM18.4814 111.394C17.4542 110.442 16.4741 109.487 15.5399 108.531L16.9704 107.133C17.8809 108.065 18.8376 108.997 19.8415 109.928L18.4814 111.394ZM11.5611 104.121C10.6601 103.033 9.81596 101.945 9.0273 100.855L10.6475 99.6822C11.4097 100.735 12.227 101.79 13.1012 102.845L11.5611 104.121ZM5.76903 95.8088C5.07913 94.5965 4.45493 93.3842 3.89439 92.1724L5.70961 91.3327C6.246 92.4923 6.84441 93.6548 7.50726 94.8196L5.76903 95.8088ZM1.72244 86.4888C1.32715 85.1844 1.00256 83.8826 0.745972 82.5843L2.70801 82.1965C2.95169 83.4295 3.26021 84.6671 3.63649 85.9088L1.72244 86.4888ZM0.0298157 76.502C-0.0232239 75.1358 -0.00416565 73.7763 0.0834351 72.4246L2.07925 72.5539C1.99605 73.8378 1.97798 75.1283 2.02831 76.4244L0.0298157 76.502ZM0.930023 66.3902C1.21518 65.066 1.56328 63.7519 1.97061 62.4489L3.8795 63.0456C3.48964 64.2928 3.15718 65.5483 2.88521 66.8113L0.930023 66.3902ZM4.14003 56.7765C4.68979 55.5611 5.28903 54.3574 5.93449 53.1662L7.69293 54.119C7.06931 55.2699 6.4915 56.4308 5.96225 57.6008L4.14003 56.7765ZM9.07927 47.984C9.82375 46.8766 10.6067 45.7819 11.4253 44.7004L13.02 45.9075C12.223 46.9604 11.4618 48.0248 10.739 49.0998L9.07927 47.984ZM15.2439 40.036C16.1271 39.0339 17.0397 38.045 17.9793 37.07L19.4193 38.4579C18.4996 39.4122 17.6072 40.3793 16.7444 41.3583L15.2439 40.036ZM22.2912 32.8621C23.2683 31.9633 24.2674 31.0782 25.2862 30.2075L26.5855 31.7279C25.5847 32.5833 24.6039 33.4522 23.6452 34.334L22.2912 32.8621ZM29.9642 26.4136C31.0188 25.6011 32.0895 24.8034 33.1742 24.0209L34.3442 25.643C33.2761 26.4134 32.2223 27.1986 31.1847 27.9979L29.9642 26.4136ZM38.1293 20.6147C39.2458 19.8831 40.3733 19.1675 41.5098 18.4684L42.5577 20.172C41.4371 20.8612 40.3257 21.5666 39.2254 22.2875L38.1293 20.6147ZM46.6944 15.4274C47.8622 14.7746 49.0362 14.1395 50.2144 13.5226L51.1421 15.2945C49.9799 15.9029 48.822 16.5293 47.6702 17.1731L46.6944 15.4274ZM55.5863 10.8491C56.806 10.2731 58.0269 9.71733 59.2468 9.18247L60.0499 11.0142C58.8471 11.5415 57.6432 12.0895 56.4404 12.6575L55.5863 10.8491ZM64.7934 6.89164C66.0529 6.40347 67.3079 5.9389 68.5559 5.4987L69.2212 7.38481C67.9927 7.8181 66.7569 8.27555 65.5162 8.75645L64.7934 6.89164ZM74.2877 3.63393C75.5812 3.24926 76.863 2.89319 78.13 2.56668L78.6291 4.50339C77.3867 4.82358 76.1286 5.17305 74.8578 5.55096L74.2877 3.63393ZM83.9874 1.24886C85.356 0.988004 86.7005 0.766495 88.0166 0.585775L88.2887 2.56718C87.0088 2.74293 85.6985 2.95873 84.3619 3.21349L83.9874 1.24886ZM94.0547 0.0391736C94.7196 0.013149 95.3744 0 96.0182 0V2C95.4016 2 94.7729 2.01259 94.1329 2.03764L94.0547 0.0391736Z" fill="#408558"/>
</svg>
