<svg width="99" height="19" viewBox="0 0 99 19" fill="none" xmlns="http://www.w3.org/2000/svg">
<path d="M98.4241 9.09641C98.6351 9.6068 98.3924 10.1916 97.882 10.4026L89.5647 13.841C89.0544 14.052 88.4696 13.8093 88.2586 13.2989C88.0476 12.7885 88.2903 12.2037 88.8007 11.9927L96.1938 8.93635L93.1375 1.5432C92.9265 1.03281 93.1692 0.44801 93.6796 0.237013C94.19 0.0260155 94.7748 0.268722 94.9857 0.779113L98.4241 9.09641ZM97.1167 10.4021C96.4936 10.1435 95.8739 9.9003 95.2576 9.67201L95.9523 7.79654C96.5929 8.03385 97.2366 8.28643 97.8833 8.55484L97.1167 10.4021ZM89.6095 7.9579C88.305 7.64845 87.0146 7.40148 85.7374 7.21122L86.0321 5.23305C87.3647 5.43156 88.7108 5.68921 90.0711 6.01191L89.6095 7.9579ZM79.8541 6.71306C78.5255 6.6837 77.2096 6.70927 75.9051 6.78287L75.7924 4.78605C77.1465 4.70964 78.5148 4.68298 79.8982 4.71355L79.8541 6.71306ZM70.0077 7.43137C68.6978 7.64173 67.3982 7.89193 66.1075 8.1745L65.6798 6.22077C67.0034 5.93098 68.3401 5.67355 69.6906 5.45667L70.0077 7.43137ZM60.3171 9.65033C59.0341 10.0183 57.7591 10.4076 56.4905 10.8105L55.8852 8.9043C57.1678 8.49699 58.4611 8.10201 59.7657 7.72784L60.3171 9.65033ZM50.7747 12.7034C49.5007 13.1363 48.2272 13.5721 46.9621 13.9989L46.3227 12.1039C47.5854 11.6778 48.8514 11.2446 50.1312 10.8097L50.7747 12.7034ZM41.1898 15.8723C39.8847 16.2715 38.5811 16.6487 37.2784 16.9935L36.7665 15.0602C38.0399 14.723 39.3187 14.3532 40.6048 13.9598L41.1898 15.8723ZM31.2949 18.3152C29.9399 18.5467 28.5827 18.7269 27.2222 18.8442L27.0504 16.8516C28.3497 16.7396 29.6516 16.567 30.9581 16.3438L31.2949 18.3152ZM21.0302 18.9046C19.667 18.8059 18.2998 18.6277 16.9274 18.3591L17.3116 16.3963C18.6015 16.6488 19.8885 16.8167 21.1747 16.9099L21.0302 18.9046ZM10.9705 16.6047C9.7239 16.1092 8.47396 15.5286 7.21972 14.8556L8.16537 13.0933C9.35384 13.731 10.5348 14.2793 11.7093 14.7461L10.9705 16.6047ZM2.01923 11.5359C1.47062 11.1286 0.921073 10.7023 0.370491 10.2562L1.62951 8.7022C2.15867 9.13091 2.68592 9.53996 3.21135 9.93001L2.01923 11.5359Z" fill="#408558"/>
</svg>
