<svg width="64" height="64" viewBox="0 0 64 64" fill="none" xmlns="http://www.w3.org/2000/svg">
    <rect width="64" height="64" rx="32" fill="#FCFCFC"/>
    <g clip-path="url(#clip0_1820_665)">
        <path d="M15.5003 41.8802C15.9086 41.5615 16.4994 41.6367 16.8181 42.0449C17.1367 42.4531 17.0615 43.0439 16.6533 43.3626L11.916 47.0436L11.8802 52.0029L17.6989 51.6771L20.8571 46.6569C21.1328 46.2201 21.7129 46.0876 22.1498 46.3633C22.5866 46.639 22.7191 47.2191 22.4434 47.6559L19.0417 53.0592C18.8877 53.3206 18.6084 53.5033 18.2826 53.5212L10.9886 53.9329C10.9707 53.9329 10.9528 53.9329 10.9349 53.9329C10.4193 53.9294 10.0003 53.5104 10.0039 52.9912L10.0505 46.6497C10.029 46.3454 10.1543 46.0374 10.4121 45.8369L15.5003 41.8802ZM24.3555 30.3109C26.7188 23.2461 29.9056 18.2367 34.3887 15.082C39.0401 11.8057 45.0199 10.5667 52.8545 11.1325C53.3952 11.1719 53.8106 11.6159 53.8177 12.1458C54.5768 20.6286 52.9297 26.6442 49.4206 31.2025C46.044 35.5853 40.9772 38.5501 34.6895 41.0387V49.321C34.6895 49.7256 34.4567 50.0801 34.1166 50.2484L27.7142 54.2051C27.2272 54.5059 26.5899 54.3555 26.2891 53.8685C26.2103 53.7396 26.1602 53.5999 26.1423 53.4603C24.7243 42.625 23.2168 42.1058 14.3581 39.0407C13.2982 38.6755 12.1559 38.278 11.3825 38.0059C10.8418 37.8161 10.5589 37.2217 10.7487 36.6846C10.7881 36.57 10.849 36.4661 10.9206 36.3731L15.1423 30.3574C15.3535 30.0566 15.6973 29.8991 16.0375 29.917L24.3555 30.3109ZM42.4811 22.3294C41.9082 21.7565 41.1205 21.4056 40.2468 21.4056C39.3767 21.4056 38.5853 21.7601 38.0124 22.3294C37.4395 22.9023 37.0886 23.6901 37.0886 24.5638C37.0886 25.4339 37.4431 26.2253 38.0124 26.7982C38.5853 27.3711 39.3731 27.722 40.2468 27.722C41.1169 27.722 41.9082 27.3675 42.4811 26.7982C43.0541 26.2253 43.405 25.4375 43.405 24.5638C43.405 23.6901 43.0505 22.9023 42.4811 22.3294Z" fill="#13243E"/>
    </g>
    <defs>
        <clipPath id="clip0_1820_665">
            <rect width="44" height="43.3555" fill="white" transform="translate(10 11)"/>
        </clipPath>
    </defs>
</svg>