<svg width="223" height="33" viewBox="0 0 223 33" fill="none" xmlns="http://www.w3.org/2000/svg">
<g clip-path="url(#clip0_442_33358)">
<path d="M8.98777 17.4529L21.4621 4.99177C22.3049 4.1535 23.4452 3.68295 24.6339 3.68295C25.8225 3.68295 26.9628 4.1535 27.8056 4.99177L28.7749 5.96121L30.7183 4.0179L29.7488 3.04403C28.3895 1.68758 26.5476 0.925781 24.6272 0.925781C22.7068 0.925781 20.8649 1.68758 19.5056 3.04403L7.04004 15.5095L8.98777 17.4529Z" fill="black"/>
<path d="M25.6414 9.09464L23.6981 7.15133L11.2193 19.6301C10.3764 20.4725 9.23332 20.9454 8.04161 20.945C6.84992 20.9446 5.7072 20.4709 4.86484 19.628C4.02248 18.7849 3.54947 17.642 3.54989 16.4502C3.55031 15.2585 4.02411 14.1158 4.86705 13.2734L15.6327 2.50776L13.6894 0.564453L2.92375 11.3301C2.2384 11.9996 1.6927 12.7983 1.31825 13.6802C0.943795 14.5621 0.748039 15.5094 0.742317 16.4674C0.736595 17.4254 0.92102 18.3752 1.28491 19.2614C1.6488 20.1477 2.18492 20.9529 2.86223 21.6305C3.53952 22.3081 4.34453 22.8445 5.23063 23.2088C6.11673 23.5732 7.06631 23.758 8.02433 23.7526C8.98237 23.7473 9.92984 23.552 10.8118 23.178C11.6939 22.8038 12.4929 22.2585 13.1626 21.5734L25.6414 9.09464ZM38.0626 11.3301C36.7027 9.97474 34.861 9.21369 32.941 9.21369C31.021 9.21369 29.1793 9.97474 27.8193 11.3301L15.3406 23.8089L17.2838 25.7522L29.7626 13.2734C30.3913 12.646 31.1917 12.219 32.0629 12.0464C32.9339 11.8736 33.8367 11.963 34.6571 12.3031C35.4775 12.6432 36.1787 13.2188 36.6722 13.9572C37.1657 14.6956 37.4293 15.5637 37.4297 16.4518C37.4319 17.0434 37.3155 17.6296 37.0874 18.1754C36.8594 18.7213 36.5242 19.216 36.1017 19.6301L25.3493 30.3958L27.297 32.339L38.0626 21.5734C39.4191 20.2141 40.1809 18.3721 40.1809 16.4518C40.1809 14.5314 39.4191 12.6895 38.0626 11.3301Z" fill="black"/>
<path d="M31.9982 15.4513L19.5194 27.9257C18.6755 28.7669 17.5326 29.2393 16.3411 29.2393C15.1495 29.2393 14.0066 28.7669 13.1627 27.9257L12.1933 26.9518L10.25 28.8952L11.2194 29.869C12.5794 31.2244 14.4211 31.9854 16.3411 31.9854C18.2611 31.9854 20.1029 31.2244 21.4627 29.869L33.9415 17.3858L31.9982 15.4513Z" fill="black"/>
<path d="M51.5771 19.8068C51.7047 20.5471 52.108 21.2114 52.7059 21.666C53.3916 22.1404 54.2147 22.3755 55.0476 22.3346C55.8403 22.3851 56.6251 22.1512 57.2609 21.675C57.5143 21.4642 57.7163 21.1982 57.8512 20.8975C57.9863 20.5967 58.0508 20.2691 58.04 19.9396C58.0489 19.6315 57.9772 19.3263 57.8319 19.0543C57.6864 18.8075 57.4865 18.5971 57.2476 18.4391C56.9625 18.2498 56.6527 18.1008 56.3268 17.9964L55.0963 17.6246L53.9232 17.3058C53.2728 17.1335 52.64 16.9008 52.0329 16.6108C51.5119 16.3644 51.03 16.0422 50.6032 15.6547C50.2225 15.3012 49.9208 14.8712 49.7179 14.3931C49.5013 13.867 49.3959 13.3018 49.408 12.7331C49.4017 12.1029 49.5379 11.4795 49.8064 10.9093C50.0652 10.3544 50.4484 9.86667 50.9263 9.48391C51.452 9.06315 52.0529 8.74619 52.6969 8.54988C53.4496 8.31139 54.236 8.19628 55.0255 8.20903C56.6515 8.20903 57.9396 8.59267 58.8899 9.35996C59.3608 9.73921 59.7515 10.2086 60.0388 10.7407C60.3261 11.2728 60.5044 11.8568 60.5632 12.4586L57.9072 12.6755C57.7757 12.0661 57.4341 11.5224 56.9421 11.1395C56.3457 10.7408 55.6353 10.548 54.9192 10.5906C54.2433 10.5508 53.5749 10.7481 53.0289 11.1483C52.8109 11.3183 52.6357 11.5369 52.5173 11.7867C52.3989 12.0365 52.3407 12.3106 52.3473 12.587C52.3364 12.8816 52.4052 13.1737 52.5465 13.4325C52.6889 13.6713 52.8843 13.8743 53.1175 14.0256C53.4019 14.2106 53.7081 14.3594 54.0295 14.4683C54.388 14.6011 54.7952 14.7428 55.2468 14.8888L56.3711 15.2386C57.0705 15.4599 57.7036 15.69 58.2701 15.9291C58.7912 16.1507 59.2761 16.4492 59.7088 16.8144C60.0988 17.1446 60.4103 17.5574 60.6207 18.023C60.8484 18.5723 60.9571 19.1638 60.9395 19.7582C60.9468 20.4531 60.7955 21.1404 60.4968 21.7679C60.2087 22.3706 59.788 22.9003 59.2661 23.3172C58.7053 23.7607 58.0676 24.0968 57.3848 24.3088C56.6069 24.5507 55.7957 24.6688 54.9812 24.6586C53.5405 24.7122 52.1192 24.3127 50.9175 23.5164C50.3564 23.1104 49.8867 22.5915 49.5383 21.9931C49.1899 21.3946 48.9705 20.7298 48.8945 20.0415L51.5771 19.8068ZM72.1389 8.25329C73.2524 8.23888 74.3579 8.44343 75.3925 8.85532C76.3375 9.23379 77.1903 9.8104 77.8936 10.5463C78.5993 11.2967 79.1459 12.1821 79.5004 13.1492C79.8897 14.2123 80.0832 15.3371 80.0715 16.4692C80.0873 17.622 79.8815 18.7672 79.4651 19.8423C79.0768 20.8195 78.4905 21.7056 77.7431 22.4452L79.8501 24.9108V25.6767H77.1941L75.7201 23.875C75.186 24.1306 74.6267 24.3294 74.0512 24.4682C73.43 24.601 72.7963 24.6663 72.1611 24.663C71.0348 24.6698 69.9184 24.4531 68.8764 24.0255C67.9368 23.6446 67.09 23.0664 66.3931 22.33C65.696 21.5831 65.1583 20.702 64.8128 19.7404C64.4311 18.6879 64.2407 17.5755 64.2505 16.4559C64.2395 15.329 64.4299 14.2091 64.8128 13.1492C65.1604 12.1844 65.7029 11.3014 66.4064 10.5552C67.1079 9.81907 67.9572 9.23976 68.8985 8.85532C69.9272 8.43855 71.0293 8.23377 72.1389 8.25329ZM72.1168 10.626C71.3859 10.6147 70.6617 10.7659 69.9964 11.0687C69.3852 11.351 68.8451 11.767 68.4161 12.286C67.97 12.8302 67.6332 13.4555 67.4245 14.1275C67.1936 14.8758 67.0801 15.6552 67.0881 16.4382C67.0804 17.228 67.1984 18.0139 67.4377 18.7666C67.6523 19.4447 67.9915 20.0768 68.4383 20.6303C68.8665 21.1555 69.4064 21.579 70.0185 21.8698C70.6831 22.1746 71.4079 22.3259 72.1389 22.3124C72.8693 22.3195 73.5927 22.1684 74.2593 21.8698C74.8693 21.5934 75.4095 21.1834 75.8396 20.67C76.2915 20.1251 76.6315 19.4963 76.84 18.8198C77.0821 18.0494 77.2017 17.2458 77.1941 16.4382C77.2009 15.6423 77.0813 14.8504 76.84 14.092C76.6284 13.4195 76.2887 12.7941 75.8396 12.2506C75.4049 11.7372 74.8623 11.3261 74.2504 11.0465C73.5784 10.7523 72.8501 10.6087 72.1168 10.626ZM90.5052 22.4231C90.9973 22.4534 91.4901 22.3755 91.9489 22.1951C92.4077 22.0146 92.8215 21.7358 93.1612 21.3783C93.7897 20.6848 94.104 19.6195 94.104 18.1823V8.55873H96.8619V18.2708C96.8836 19.2658 96.7339 20.2571 96.4192 21.2012C96.1649 21.9575 95.7357 22.6431 95.1664 23.2022C94.6017 23.7368 93.9171 24.1284 93.17 24.3442C91.432 24.8248 89.596 24.8248 87.858 24.3442C87.1136 24.1283 86.4319 23.7366 85.8704 23.2022C85.3027 22.6419 84.8736 21.9568 84.6177 21.2012C84.3032 20.2571 84.1535 19.2658 84.1751 18.2708V8.55873H86.9417V18.1823C86.9417 19.6166 87.2575 20.6819 87.8889 21.3783C88.2239 21.731 88.6311 22.007 89.0827 22.1874C89.5343 22.3676 90.0195 22.448 90.5052 22.4231ZM99.6241 23.5828L105.224 8.57644H109.376L114.914 23.5828V24.3354H112.191L110.607 19.829H103.776L102.174 24.3354H99.6064L99.6241 23.5828ZM104.609 17.474H109.819L108.96 14.9686C108.623 13.9903 108.353 13.1979 108.145 12.5737C107.937 11.9496 107.76 11.4184 107.597 10.9491H106.919L106.654 11.6972C106.565 11.9451 106.468 12.224 106.357 12.5295C106.246 12.8349 106.127 13.189 105.994 13.5874C105.861 13.9858 105.702 14.4418 105.512 14.9686L104.609 17.474ZM130.381 24.3354H127.725L122.913 18.138H121.142V24.3354H118.415V8.55873H123.537C124.304 8.55739 125.071 8.61212 125.83 8.72252C126.535 8.82483 127.209 9.08509 127.8 9.48391C129.045 10.3043 129.668 11.5408 129.668 13.1935C129.68 13.8339 129.571 14.471 129.345 15.0703C129.153 15.5751 128.866 16.038 128.499 16.4338C128.149 16.8056 127.737 17.1142 127.282 17.3456C126.825 17.579 126.342 17.7559 125.843 17.8724L130.381 23.5828V24.3354ZM121.133 15.7654H123.528C124.396 15.8116 125.26 15.6122 126.02 15.1899C126.327 14.9852 126.572 14.7026 126.733 14.3711C126.893 14.0395 126.962 13.6712 126.932 13.3041C126.968 12.9398 126.901 12.5727 126.737 12.2452C126.573 11.9178 126.32 11.6434 126.007 11.4538C125.239 11.0717 124.385 10.8919 123.528 10.9314H121.133V15.7654ZM133.895 8.55873H144.113V10.9757H136.587V15.1058H143.573V17.4784H136.601V21.9051H144.267V24.3354H133.895V8.55873ZM150.375 19.8068C150.503 20.5471 150.907 21.2114 151.505 21.666C152.19 22.1399 153.014 22.3748 153.846 22.3346C154.639 22.3851 155.423 22.1512 156.059 21.675C156.313 21.4642 156.515 21.1982 156.65 20.8975C156.785 20.5967 156.85 20.2691 156.839 19.9396C156.847 19.6315 156.775 19.3263 156.631 19.0543C156.485 18.8075 156.286 18.5971 156.046 18.4391C155.761 18.2498 155.451 18.1008 155.126 17.9964L153.895 17.6246L152.709 17.297C152.058 17.1247 151.426 16.892 150.818 16.602C150.297 16.3555 149.815 16.0334 149.389 15.6458C149.007 15.2923 148.706 14.8624 148.503 14.3842C148.285 13.8271 148.179 13.2317 148.195 12.6334C148.21 12.035 148.345 11.4458 148.591 10.9004C148.853 10.3465 149.235 9.85903 149.711 9.47505C150.238 9.05429 150.838 8.73733 151.482 8.54103C152.235 8.30253 153.022 8.18743 153.811 8.20017C155.437 8.20017 156.726 8.58381 157.679 9.35111C158.15 9.73059 158.541 10.2001 158.826 10.7322C159.113 11.2643 159.29 11.8482 159.349 12.4498L156.693 12.6667C156.563 12.0585 156.225 11.515 155.737 11.1306C155.141 10.7313 154.43 10.5385 153.714 10.5817C153.038 10.542 152.369 10.7392 151.823 11.1395C151.606 11.3099 151.431 11.5287 151.314 11.7785C151.197 12.0283 151.139 12.3021 151.146 12.5781C151.134 12.8724 151.201 13.1644 151.341 13.4236C151.483 13.6625 151.678 13.8655 151.911 14.0168C152.197 14.2018 152.502 14.3504 152.823 14.4595C153.182 14.5923 153.59 14.7339 154.046 14.88L155.166 15.2298C155.867 15.4511 156.501 15.6812 157.065 15.9203C157.586 16.1419 158.07 16.4403 158.503 16.8056C158.893 17.1358 159.205 17.5486 159.415 18.014C159.643 18.5635 159.751 19.155 159.734 19.7494C159.741 20.4442 159.59 21.1316 159.291 21.7591C159.005 22.3627 158.583 22.8926 158.061 23.3084C157.499 23.7483 156.861 24.0814 156.179 24.2911C155.399 24.533 154.587 24.651 153.771 24.6408C152.33 24.6939 150.91 24.2946 149.707 23.4987C149.15 23.0939 148.683 22.5774 148.337 21.9822C147.99 21.387 147.77 20.726 147.693 20.0415L150.375 19.8068ZM163.665 8.55873H169.419C170.331 8.53519 171.241 8.66232 172.111 8.935C172.773 9.13884 173.378 9.49171 173.882 9.96641C174.323 10.397 174.655 10.9287 174.846 11.5157C175.049 12.1357 175.15 12.7846 175.143 13.4369C175.161 14.1719 175.022 14.9023 174.735 15.5794C174.477 16.1715 174.074 16.689 173.563 17.0844C173.003 17.4984 172.369 17.7991 171.694 17.9698C170.883 18.1779 170.049 18.2776 169.211 18.2664H166.422V24.3354H163.674L163.665 8.55873ZM166.414 15.8982H169.047C169.493 15.9015 169.938 15.8614 170.375 15.7786C170.749 15.7088 171.105 15.5724 171.429 15.3758C171.727 15.1892 171.97 14.9264 172.133 14.6144C172.311 14.2482 172.398 13.844 172.385 13.4369C172.398 13.0198 172.311 12.6055 172.133 12.2284C171.975 11.9125 171.735 11.6449 171.438 11.4538C171.119 11.2558 170.766 11.1191 170.398 11.0509C169.959 10.9675 169.515 10.9275 169.07 10.9314H166.391L166.414 15.8982ZM175.905 23.5828L181.509 8.57644H185.661L191.194 23.5828V24.3354H188.494L186.914 19.829H180.057L178.477 24.3354H175.905V23.5828ZM180.893 17.474H186.099L185.241 14.9686C184.903 13.9903 184.634 13.1979 184.43 12.5737L183.881 10.9491H183.182L182.917 11.6972C182.827 11.9451 182.73 12.224 182.619 12.5295C182.509 12.8349 182.39 13.189 182.257 13.5874C182.123 13.9858 181.965 14.4418 181.774 14.9686L180.893 17.474ZM207.935 20.161C207.686 20.7783 207.358 21.3614 206.962 21.8963C206.55 22.4447 206.057 22.9256 205.497 23.3216C204.89 23.7478 204.219 24.0735 203.509 24.2867C202.694 24.5308 201.846 24.6503 200.995 24.6408C199.895 24.6575 198.805 24.448 197.79 24.0255C196.861 23.6378 196.023 23.0586 195.333 22.3256C194.639 21.576 194.105 20.6936 193.762 19.7316C193.386 18.6854 193.199 17.5808 193.209 16.4692C193.198 15.3575 193.386 14.253 193.762 13.2067C194.106 12.2405 194.643 11.3547 195.342 10.6039C196.037 9.86313 196.878 9.27519 197.811 8.87745C198.83 8.44933 199.926 8.23681 201.03 8.25329C202.566 8.19868 204.082 8.62081 205.369 9.46177C206.511 10.2409 207.378 11.3631 207.843 12.6667L205.05 13.2156C204.702 12.4489 204.15 11.7921 203.455 11.3165C202.722 10.8411 201.861 10.6003 200.986 10.626C200.269 10.6103 199.558 10.7619 198.91 11.0687C198.313 11.3616 197.789 11.7834 197.374 12.3037C196.938 12.8579 196.614 13.4906 196.418 14.1674C196.191 14.912 196.079 15.6866 196.086 16.4647C196.079 17.248 196.194 18.0275 196.426 18.7755C196.634 19.4455 196.97 20.0691 197.414 20.6126C197.846 21.1228 198.386 21.5323 198.994 21.8122C199.655 22.1158 200.377 22.267 201.106 22.2548C202.01 22.2912 202.902 22.0283 203.642 21.5067C204.294 21.0288 204.825 20.404 205.191 19.683L207.935 20.161ZM211.65 8.55873H221.866V10.9757H214.341V15.1058H221.339V17.4784H214.354V21.9051H222.022V24.3354H211.65V8.55873Z" fill="black"/>
</g>
<defs>
<clipPath id="clip0_442_33358">
<rect width="221.333" height="32" fill="white" transform="translate(0.803711 0.5)"/>
</clipPath>
</defs>
</svg>
