<svg width="64" height="64" viewBox="0 0 64 64" fill="none" xmlns="http://www.w3.org/2000/svg">
    <rect width="64" height="64" rx="32" fill="#FCFCFC"/>
    <g clip-path="url(#clip0_1820_274)">
        <path fill-rule="evenodd" clip-rule="evenodd" d="M45.0655 26.347C46.353 25.9661 47.4995 25.3528 48.4328 24.5757C49.9641 23.2997 50.9088 21.5665 50.9088 19.6733C50.9088 18.6144 50.6155 17.6087 50.0898 16.7098H50.0936C49.8574 16.306 49.5755 15.9213 49.2518 15.5632C49.0842 17.9249 48.5052 20.1647 47.5986 22.2026C46.9282 23.7072 46.0711 25.1014 45.0655 26.347ZM32.4838 43.7435L33.5618 46.7642L36.7691 46.8556L34.2284 48.8135L35.1311 51.8913L32.4838 50.0782L29.8364 51.8913L30.7392 48.8135L28.1984 46.8556L31.4058 46.7642L32.4838 43.7435ZM18.8583 39.8315H46.113V55.8072H18.8583V39.8315ZM34.1331 31.8817V34.3767H34.3198V36.1213H29.5888V34.3767H29.7754V31.8665C26.8919 31.4208 24.2559 30.1181 22.1038 28.2135L21.8485 28.9182C18.8812 28.8687 16.1957 27.844 14.2492 26.2213C12.2418 24.5529 11 22.2369 11 19.6695C11 18.222 11.4 16.8507 12.1161 15.6204L12.1123 15.6165C12.836 14.3709 13.8874 13.2815 15.1711 12.4283L16.3328 11.655H14.9882V9H48.7413V11.655H47.6671L48.8289 12.4283C50.1088 13.2815 51.1564 14.3709 51.8839 15.6165H51.8877C52.6 16.8431 53 18.2144 53 19.6695C53 22.2369 51.7582 24.5491 49.747 26.2251C47.8005 27.8478 45.115 28.8725 42.1476 28.922L41.8924 28.2135C39.7174 30.1409 37.051 31.4513 34.1331 31.8817ZM27.0595 37.8698H36.8529V39.6144H27.0595V37.8698ZM28.5527 36.1213H35.3597V37.8659H28.5527V36.1213ZM15.5672 24.5757C16.5005 25.3566 17.6508 25.9661 18.9383 26.3508C17.9327 25.1052 17.0756 23.711 16.4014 22.1988C15.4948 20.1647 14.9158 17.9211 14.7482 15.5594C14.4321 15.9098 14.1502 16.2984 13.9102 16.706H13.9064C13.3845 17.6011 13.0912 18.6106 13.0912 19.6695C13.0912 21.5665 14.0359 23.2958 15.5672 24.5757Z" fill="#13243E"/>
    </g>
    <defs>
        <clipPath id="clip0_1820_274">
            <rect width="42" height="46.8072" fill="white" transform="translate(11 9)"/>
        </clipPath>
    </defs>
</svg>