<svg width="141" height="33" viewBox="0 0 141 33" fill="none" xmlns="http://www.w3.org/2000/svg">
<g clip-path="url(#clip0_442_33345)">
<path d="M19.1507 12.2943H27.5317V27.1362H0.895508V12.2943H9.27646V19.7H19.1203V12.2943H19.1507ZM47.4936 19.8829C47.4936 22.4124 45.8479 23.8752 43.5622 23.8752C41.3374 23.8752 39.6612 22.3819 39.6612 19.8829V7.93619H35.9431V19.8524C35.9431 24.5457 39.2955 27.5324 43.5927 27.5324C47.9203 27.5324 51.2422 24.5457 51.2422 19.8524V7.93619H47.5241V19.8829H47.4936ZM60.8117 13.4524C59.3793 13.4524 57.7946 14.0619 56.9717 15.4638V13.8181H53.4974V27.1362H57.0936V19.4562C57.0936 17.9019 58.0079 16.6829 59.5927 16.6829C61.3298 16.6829 62.0612 17.841 62.0612 19.3343V27.1057H65.6574V18.7248C65.6269 15.799 64.1031 13.4524 60.8117 13.4524ZM74.0079 19.06C74.0079 19.06 72.7888 18.8162 72.0269 18.6638C71.265 18.5114 70.8079 18.1152 70.8079 17.4752C70.8079 16.7133 71.4784 16.1648 72.4231 16.1648C73.7641 16.1648 74.2822 16.8352 74.4041 17.6581H77.5126C77.4822 15.8295 76.0498 13.4524 72.4841 13.4524C69.6193 13.4524 67.5165 15.4333 67.5165 17.8105C67.5165 19.6695 68.6746 21.2238 71.2346 21.7724L73.0631 22.1686C74.0993 22.3819 74.4955 22.8695 74.4955 23.479C74.4955 24.18 73.8555 24.7895 72.6669 24.7895C71.2346 24.7895 70.4422 23.9667 70.2593 23.0219H67.0593C67.2422 25.0029 68.6746 27.5324 72.6974 27.5324C76.1717 27.5324 77.9393 25.3076 77.9393 23.1438C77.9698 21.1933 76.6288 19.6086 74.0079 19.06ZM93.2688 20.4314C93.2688 24.4543 90.7393 27.441 86.9907 27.441C85.1622 27.441 83.7907 26.7095 83.1507 25.8257V32.2562H79.5546V13.8181H83.0288V15.4638C83.6384 14.4276 85.1012 13.5133 87.1127 13.5133C91.0136 13.5133 93.2688 16.5 93.2688 20.4314ZM89.7336 20.4619C89.7336 18.1152 88.2708 16.7438 86.4422 16.7438C84.6136 16.7438 83.1203 18.1152 83.1203 20.4619C83.1203 22.8086 84.6136 24.2105 86.4422 24.2105C88.2708 24.2105 89.7336 22.839 89.7336 20.4619ZM110.457 13.8181H113.932V27.1362H110.336V25.4905C109.726 26.5571 108.324 27.441 106.496 27.441C102.747 27.441 100.217 24.4543 100.217 20.4314C100.217 16.4695 102.473 13.5133 106.343 13.5133C108.355 13.5133 109.787 14.4276 110.427 15.4638V13.8181H110.457ZM110.396 20.4619C110.396 18.1152 108.903 16.7438 107.075 16.7438C105.246 16.7438 103.783 18.1152 103.783 20.4619C103.783 22.839 105.246 24.2105 107.075 24.2105C108.903 24.2105 110.396 22.8086 110.396 20.4619ZM94.945 27.1057H98.5412V7.93619H94.945V27.1057ZM135.296 13.4524C134.016 13.4524 132.553 13.879 131.699 14.9152V7.93619H128.103V27.1057H131.699V19.3038C131.791 17.841 132.675 16.7133 134.198 16.7133C135.936 16.7133 136.667 17.8714 136.667 19.3648V27.1362H140.263V18.7552C140.233 15.799 138.678 13.4524 135.296 13.4524ZM122.496 19.06C122.496 19.06 121.276 18.8162 120.515 18.6638C119.753 18.5114 119.296 18.1152 119.296 17.4752C119.296 16.7133 119.966 16.1648 120.911 16.1648C122.252 16.1648 122.77 16.8352 122.892 17.6581H126C125.97 15.8295 124.537 13.4524 120.972 13.4524C118.107 13.4524 116.004 15.4333 116.004 17.8105C116.004 19.6695 117.162 21.2238 119.722 21.7724L121.551 22.1686C122.587 22.3819 122.983 22.8695 122.983 23.479C122.983 24.18 122.343 24.7895 121.155 24.7895C119.722 24.7895 118.93 23.9667 118.747 23.0219H115.547C115.73 25.0029 117.162 27.5324 121.185 27.5324C124.659 27.5324 126.427 25.3076 126.427 23.1438C126.457 21.1933 125.116 19.6086 122.496 19.06ZM19.1507 0.5H9.27646V7.93619H19.1203V0.5H19.1507Z" fill="black"/>
</g>
<defs>
<clipPath id="clip0_442_33345">
<rect width="139.581" height="32" fill="white" transform="translate(0.895508 0.5)"/>
</clipPath>
</defs>
</svg>
