<svg width="34" height="34" viewBox="0 0 34 34" fill="none" xmlns="http://www.w3.org/2000/svg">
<rect width="34" height="34" rx="17" fill="#2B76DD" fill-opacity="0.12"/>
<path d="M22.8509 19.49C21.9671 18.6064 20.9153 17.9522 19.7677 17.5561C20.9968 16.7096 21.8043 15.2928 21.8043 13.6907C21.8043 11.1043 19.7001 9 17.1136 9C14.5272 9 12.4229 11.1043 12.4229 13.6907C12.4229 15.2928 13.2305 16.7096 14.4597 17.5561C13.312 17.9522 12.2602 18.6064 11.3764 19.49C9.84398 21.0225 9 23.06 9 25.2273H10.2678C10.2678 21.4524 13.3388 18.3814 17.1136 18.3814C20.8885 18.3814 23.9595 21.4524 23.9595 25.2273H25.2273C25.2273 23.06 24.3833 21.0225 22.8509 19.49ZM17.1136 17.1136C15.2262 17.1136 13.6907 15.5781 13.6907 13.6907C13.6907 11.8033 15.2262 10.2678 17.1136 10.2678C19.001 10.2678 20.5366 11.8033 20.5366 13.6907C20.5366 15.5781 19.001 17.1136 17.1136 17.1136Z" fill="#13243E"/>
</svg>
