<svg width="129" height="33" viewBox="0 0 129 33" fill="none" xmlns="http://www.w3.org/2000/svg">
<g clip-path="url(#clip0_442_33328)">
<path d="M42.0265 13.0135C42.0265 10.7312 39.7937 8.30718 35.9298 8.30718C31.5908 8.30718 26.8242 11.471 26.0958 17.7828C25.3515 24.1576 29.3421 26.9909 33.3644 26.9909C37.3866 26.9909 39.4928 25.4326 41.6464 23.3549C39.7937 21.0411 37.4025 22.1114 36.9432 22.3475C36.4365 22.5994 35.7872 22.9456 34.457 22.9456C32.9051 22.9456 31.3216 22.2531 31.3216 19.3726C41.2664 18.3967 42.0265 15.2959 42.0265 13.0135ZM37.1016 13.3913C37.0383 14.0996 36.7532 15.3116 31.7175 15.9884C32.7785 12.2423 34.8054 11.9589 35.7397 11.9589C36.6107 11.9589 37.1649 12.6358 37.1016 13.3913ZM20.2524 14.0052C20.2524 14.0052 18.1146 20.679 17.9404 21.23C17.8771 20.6633 16.3093 8.68495 16.3093 8.68495C12.6671 8.68495 10.7193 11.2664 9.68999 13.9894C9.68999 13.9894 7.09294 20.679 6.87124 21.2457C6.8554 20.7263 6.47535 14.0681 6.47535 14.0681C6.25364 10.7312 3.18152 8.70069 0.695312 8.70069L3.7041 26.8492C7.5205 26.8335 9.57914 24.2678 10.656 21.5448C10.656 21.5448 12.9521 15.6422 13.0472 15.3746C13.063 15.6264 14.6941 26.8492 14.6941 26.8492C18.5263 26.8492 20.585 24.441 21.6935 21.8123L27.0618 8.70069C23.277 8.70069 21.2817 11.2664 20.2524 14.0052ZM56.0886 8.2757C53.7291 8.2757 51.9238 9.55066 50.4036 11.4238V11.408L51.7655 0.5C48.63 0.5 46.0804 3.20733 45.5895 7.23684L43.2142 26.7076C45.0195 26.7076 46.9356 26.1881 47.9649 24.866C48.8834 26.0465 50.2611 26.9909 52.3039 26.9909C57.593 26.9909 61.2194 20.8837 61.2194 15.1542C61.1877 9.92843 58.6382 8.2757 56.0886 8.2757ZM55.5977 17.6412C55.0435 20.8364 53.254 23.0086 51.5279 23.0086C49.786 23.0086 49.0417 22.2373 49.0417 22.2373C49.3743 19.4356 49.5801 17.7199 50.2136 16.2403C50.847 14.7607 52.3514 12.3997 53.9191 12.3997C55.4552 12.3997 56.152 14.4302 55.5977 17.6412ZM74.4264 8.70069H70.7366L70.7525 8.5118C71.0058 6.11928 71.5759 4.86006 73.4604 4.65544C74.7431 4.52951 75.3132 3.86842 75.4557 3.14437C75.5665 2.57772 75.9149 0.610182 75.9149 0.610182C68.5038 0.562961 66.176 3.7425 65.5742 8.59051L65.5584 8.70069H65.4792C64.2757 8.70069 62.9455 10.0544 62.7238 11.77L62.6446 12.3997H65.115L63.0405 29.4306L62.4071 32.4843C62.4862 32.4843 62.5812 32.5 62.6604 32.5C66.1284 32.3741 68.3454 29.651 68.8363 25.7002L70.4516 12.3997H71.6076C72.7478 12.3997 74.078 11.2664 74.3155 9.37752L74.4264 8.70069ZM93.6192 8.38588C89.3594 8.38588 85.3372 11.5025 84.102 16.3977C82.8668 21.2929 84.7354 27.0853 91.0063 27.0853C97.2614 27.0853 100.872 21.0568 100.872 16.0357C100.872 11.046 97.4673 8.38588 93.6192 8.38588ZM95.3453 17.4838C95.1236 19.7031 94.1418 23.0716 91.4497 23.0716C88.7418 23.0716 89.1219 19.1365 89.3911 17.2634C89.6761 15.2644 90.8005 12.4154 93.2233 12.4154C95.3928 12.4154 95.5987 14.9811 95.3453 17.4838ZM121.918 14.0052C121.918 14.0052 119.78 20.679 119.606 21.23C119.542 20.6633 117.975 8.68495 117.975 8.68495C114.332 8.68495 112.385 11.2664 111.355 13.9894C111.355 13.9894 108.758 20.679 108.536 21.2457C108.521 20.7263 108.141 14.0681 108.141 14.0681C107.919 10.7312 104.847 8.70069 102.361 8.70069L105.353 26.8492C109.17 26.8335 111.229 24.2678 112.305 21.5448C112.305 21.5448 114.602 15.6422 114.681 15.3746C114.712 15.6264 116.328 26.8492 116.328 26.8492C120.16 26.8492 122.219 24.441 123.327 21.8123L128.695 8.70069C124.926 8.70069 122.931 11.2664 121.918 14.0052ZM77.9102 0.610182L74.8064 25.4956L74.173 28.5649C74.2522 28.5649 74.3472 28.5807 74.4264 28.5807C77.7677 28.5334 80.143 25.6215 80.5864 21.954L82.3759 7.67757C82.9143 3.31751 80.3014 0.610182 77.9102 0.610182Z" fill="black"/>
</g>
<defs>
<clipPath id="clip0_442_33328">
<rect width="128" height="32" fill="white" transform="translate(0.695312 0.5)"/>
</clipPath>
</defs>
</svg>
